<?xml version="1.0" encoding="utf-8"?>
<!-- Generator: Adobe Illustrator 19.0.0, SVG Export Plug-In . SVG Version: 6.00 Build 0)  -->
<svg version="1.1" id="Layer_1" xmlns="http://www.w3.org/2000/svg" xmlns:xlink="http://www.w3.org/1999/xlink" x="0px" y="0px"
	 viewBox="0 0 148.8 217.8" style="enable-background:new 0 0 148.8 217.8;" xml:space="preserve">
<style type="text/css">
	.st0{fill:#A38B33;}
	.st1{fill:#5B7093;}
	.st2{fill:#6E453A;}
	.st3{fill:#A4BC9A;}
	.st4{fill:#788F6F;}
</style>
<g id="XMLID_275_">
	<rect id="XMLID_308_" class="st0" width="148.8" height="217.8"/>
	<rect id="XMLID_307_" x="6.5" y="9.5" class="st1" width="135.8" height="198.8"/>
	<path id="XMLID_306_" class="st0" d="M75.4,186.4c0,0-0.1,0-0.3-0.1c-2.2-0.8-15-5.4-22.5-7.2c-8.2-1.9-23,4.5-23.3,4.8
		c-0.3,0.3-8.5-1.9-9.3-3.2c-0.8-1.3-10,2.1-10,2.1s-0.8,2.3-0.6,2.9c0.2,0.6,1.6,7.3,3.2,7.6s0.4,3.7,1.6,3.8
		c1.2,0.1,1.2,2.3,1.7,1.8c0.6-0.5,5.7-0.2,7.3-0.9c1.6-0.7,8.2-2.5,9.8-2.6c1.7-0.1,1.8-1.9,5-0.3c3.3,1.6,3.9,1.6,5.4,0.9
		c1.5-0.6,5.7-3.1,7.4-2.7s2.3,0.8,3.3,0.9c1,0.1,25,2.5,25,2.5l21.5,0.6l9-1.7c0,0,3,0.2,3.6,0.2c0.6,0,5.9,1.1,6.6,1.1
		c0.7-0.1,3.6,1.3,4.6,1.3s4.8-0.9,6.8-1s9.4-1.2,9.4-1.2s-3.3-16-7.9-17c-4.5-1-24.3,3.1-29.2,4.2s-22.3,4-23.5,3.8
		s-4.8-0.8-4.8-0.8L75.4,186.4z"/>
	<g id="XMLID_276_">
		<path id="XMLID_305_" class="st2" d="M56,135.6c0,0,3.6,29-2.4,40.6s-5.8,11.2-0.7,12.3c5.1,1.1,8.1-3.2,8.1-3.2l7.2-48.9
			L56,135.6z"/>
		<path id="XMLID_304_" class="st3" d="M44.4,80c0,0,3.7-0.2,9.7-23.8c0,0-1.4-31.4,7.4-23.1c0,0,1.8,19.9,12.2,27.9
			s6.7,23.1,6.7,23.1s-1.2,9.7,12,13.9s12.9,12,12.9,12s-4.2,3.5-9.2-2.8s-6.7-2.5-6.7-0.7s-2.5,3-6,0.7s-6-5.5-4.8,0
			s19.4,30.5,22.2,31.2s18.2,14.8,18.9,20.3c0,0,5.5,6,5.8,9.2c0.2,3.2-6.2,0-6.7-3.2s-15.7-12.2-19.2-10.2s-5.1-0.9-4.6,3.5
			c0.5,4.4-9-1.2-10-3.7c-1-2.5-9.1-15.5-10.3-6.9s-6.7,1.6-6.7,1.6s-6.2-4.8-7.6-8.8c-1.4-3.9-4.4,0.2-4.2,2.8s-4.2,7.8-6.5,2.5
			c-2.3-5.3,0.9-12.9-5.3-3.9c-6.2,9-22.2,19.9-23.6,20.3c-1.4,0.5-5.5-1.2,0.9-13.9c6.5-12.7,14.5-18.7,19.6-28.9
			s1.2-11.1,1.2-11.1s-11.6,15.5-21.7,15.9c-10.1,0.5,5.3-14.3,5.3-14.3S35.6,92,44.4,80z"/>
		<g id="XMLID_277_">
			<g id="XMLID_302_">
				<path id="XMLID_303_" class="st4" d="M99.5,108.3c0.9,0.2,1.8,0.3,2.7,0.5c0.4,0.1,0.6-0.6,0.2-0.7c-0.9-0.2-1.8-0.4-2.7-0.5
					C99.3,107.5,99.1,108.2,99.5,108.3L99.5,108.3z"/>
			</g>
			<g id="XMLID_300_">
				<path id="XMLID_301_" class="st4" d="M100.8,105.7c0.4,0.9,0.8,1.8,1.2,2.7c0.2,0.4,0.8,0,0.6-0.4c-0.4-0.9-0.9-1.8-1.2-2.7
					C101.2,104.9,100.6,105.3,100.8,105.7L100.8,105.7z"/>
			</g>
			<g id="XMLID_298_">
				<path id="XMLID_299_" class="st4" d="M20.3,118c-0.3,0.9-0.6,1.8-1.1,2.7c-0.2,0.4,0.4,0.8,0.6,0.4c0.5-0.9,0.8-1.9,1.1-2.9
					C21.2,117.8,20.5,117.6,20.3,118L20.3,118z"/>
			</g>
			<g id="XMLID_296_">
				<path id="XMLID_297_" class="st4" d="M19.3,121.6c1.2,0,2.3-0.2,3.4-0.6c0.4-0.1,0.2-0.8-0.2-0.7c-1,0.4-2.1,0.6-3.2,0.6
					C18.8,120.9,18.8,121.6,19.3,121.6L19.3,121.6z"/>
			</g>
			<g id="XMLID_294_">
				<path id="XMLID_295_" class="st4" d="M20.3,155.6c0,1,0,1.9,0,2.9c0,0.3,0.3,0.4,0.5,0.3c1.6-0.9,3-2.3,4.9-2.4
					c0.5,0,0.5-0.7,0-0.7c-2.1,0.1-3.5,1.5-5.3,2.5c0.2,0.1,0.4,0.2,0.5,0.3c0-1,0-1.9,0-2.9C21,155.2,20.3,155.2,20.3,155.6
					L20.3,155.6z"/>
			</g>
			<g id="XMLID_292_">
				<path id="XMLID_293_" class="st4" d="M50.3,143.3c0.4,0.9,0.9,1.8,1.3,2.8c0.1,0.3,0.5,0.2,0.6,0c0.9-1.3,1.5-2.8,1.9-4.3
					c0.1-0.4-0.6-0.6-0.7-0.2c-0.4,1.5-1,2.9-1.8,4.2c0.2,0,0.4,0,0.6,0c-0.4-0.9-0.9-1.8-1.3-2.8C50.7,142.5,50.1,142.9,50.3,143.3
					L50.3,143.3z"/>
			</g>
			<g id="XMLID_290_">
				<path id="XMLID_291_" class="st4" d="M69.2,146.4c0.6,1,1.2,2,1.8,3c0.1,0.2,0.4,0.2,0.6,0.1c0.5-0.5,0.4-1.4,0.4-2.1
					c0.1-1.1,0.2-2.3,0.3-3.4c0-0.5-0.7-0.5-0.7,0c-0.1,0.8-0.1,1.6-0.2,2.4c0,0.5,0.1,2.2-0.3,2.6c0.2,0,0.4,0,0.6,0.1
					c-0.6-1-1.2-2-1.8-3C69.6,145.7,69,146,69.2,146.4L69.2,146.4z"/>
			</g>
			<g id="XMLID_288_">
				<path id="XMLID_289_" class="st4" d="M90,155.7c0.7,0.7,1.5,1.3,2.3,1.8c0.2,0.2,0.5-0.1,0.5-0.3c0-1.8-0.1-3.6-0.3-5.4
					c-0.1-0.4-0.8-0.5-0.7,0c0.2,1.8,0.3,3.6,0.3,5.4c0.2-0.1,0.4-0.2,0.5-0.3c-0.8-0.5-1.5-1.1-2.2-1.7
					C90.2,154.9,89.7,155.4,90,155.7L90,155.7z"/>
			</g>
			<g id="XMLID_286_">
				<path id="XMLID_287_" class="st4" d="M84.8,105.3c0.5,0.4,1,0.8,1.4,1.2c0.2,0.1,0.5,0.2,0.6-0.1c0.4-0.8,0.5-1.6,0.3-2.4
					c-0.1-0.5-0.8-0.3-0.7,0.2c0.1,0.6,0,1.3-0.3,1.9c0.2,0,0.4,0,0.6-0.1c-0.5-0.4-1-0.8-1.4-1.2C84.9,104.5,84.4,105,84.8,105.3
					L84.8,105.3z"/>
			</g>
			<g id="XMLID_284_">
				<path id="XMLID_285_" class="st4" d="M41.1,85.3c3.4,3.7,8.9,4.7,13.6,5.6c5.5,1,11.3,1.3,16.8,0c2.9-0.7,5.7-1.9,8.2-3.5
					c0.2-0.1,0-0.4-0.2-0.3c-5.8,3.8-12.8,4.8-19.6,4.2c-3.5-0.3-7.1-1-10.5-1.9c-3-0.8-5.9-2-8-4.3C41.2,84.9,40.9,85.1,41.1,85.3
					L41.1,85.3z"/>
			</g>
			<g id="XMLID_282_">
				<path id="XMLID_283_" class="st4" d="M39.6,87.3c3.7,4.4,9.5,6.2,15.1,6.8c2.9,0.3,5.9,0.3,8.8,0.3c3.2-0.1,6.4-0.2,9.6-1
					c3-0.7,5.8-2.1,8-4.2c0.2-0.2-0.1-0.4-0.3-0.3c-4.3,4.2-10.5,4.9-16.3,5.1c-5.5,0.1-11.2,0.1-16.5-1.6c-3.1-1.1-6-2.8-8.2-5.3
					C39.7,86.8,39.4,87.1,39.6,87.3L39.6,87.3z"/>
			</g>
			<g id="XMLID_280_">
				<path id="XMLID_281_" class="st4" d="M54.3,51.9c0.7,0.8,1.8,1.2,2.8,1.5c1.2,0.4,2.5,0.6,3.7,0.6c2.1-0.1,4.2-0.9,5.5-2.6
					c0.1-0.2-0.1-0.4-0.3-0.3c-1.3,1.6-3.2,2.4-5.3,2.5c-1.1,0-2.1-0.1-3.2-0.4c-1.1-0.3-2.3-0.7-3.1-1.5
					C54.4,51.5,54.1,51.7,54.3,51.9L54.3,51.9z"/>
			</g>
			<g id="XMLID_278_">
				<path id="XMLID_279_" class="st4" d="M54.1,53.5c0.1,0.9,1.1,1.1,1.9,1.4c1.3,0.4,2.5,1,3.9,1.1c2.6,0.2,4.9-1.2,6.9-2.7
					c0.2-0.1,0-0.4-0.2-0.3c-1.7,1.2-3.5,2.4-5.6,2.6c-1.2,0.1-2.2-0.1-3.3-0.5c-0.8-0.2-3.1-0.6-3.2-1.6
					C54.5,53.3,54.1,53.2,54.1,53.5L54.1,53.5z"/>
			</g>
		</g>
	</g>
</g>
</svg>
