<?xml version="1.0" encoding="utf-8"?>
<!-- Generator: Adobe Illustrator 19.0.0, SVG Export Plug-In . SVG Version: 6.00 Build 0)  -->
<svg version="1.1" id="Layer_1" xmlns="http://www.w3.org/2000/svg" xmlns:xlink="http://www.w3.org/1999/xlink" x="0px" y="0px"
	 viewBox="0 0 148.8 217.8" style="enable-background:new 0 0 148.8 217.8;" xml:space="preserve">
<style type="text/css">
	.st0{fill:#A38B33;}
	.st1{fill:#FFFFFF;}
	.st2{fill:#C6C98A;}
	.st3{fill:#D92C28;}
	.st4{fill:#FFFEFE;}
	.st5{fill:#FDD1AD;}
	.st6{fill:#62ABA9;}
	.st7{fill:#48898C;}
	.st8{fill:#FAB495;}
	.st9{fill:#F15E55;}
	.st10{fill:#F9D8C5;}
	.st11{fill:#2F6A6A;}
	.st12{fill:#DEDCDD;}
	.st13{fill:#E4AA94;}
	.st14{fill:#6B4031;}
	.st15{fill:#EB958E;}
	.st16{fill:#473C34;}
	.st17{fill:#56483B;}
	.st18{fill:#8C837C;}
	.st19{fill:#DD4B47;}
</style>
<g id="XMLID_1563_">
	<g id="XMLID_1762_">
		<rect id="XMLID_1765_" x="0" class="st0" width="148.8" height="217.8"/>
		<rect id="XMLID_1764_" x="6.5" y="9.5" class="st1" width="135.8" height="198.8"/>
		<path id="XMLID_1763_" class="st2" d="M24.9,70c0,0,1.5-32.8,5.2-37.5s5.6,1.6,12.7,4.7s17.9-23.4,29.9-10.9s12,10.9,18.7,12.5
			c6.7,1.6,38.9,14.1,38.9,34.4S91,209,72.3,193.4S10.7,180.9,20,140.3S8.8,116.9,24.9,70z"/>
	</g>
	<g id="XMLID_1564_">
		<path id="XMLID_1761_" class="st3" d="M28.4,144c0,0,8.3,4.2,12.6,4.2c4.1-0.1,4.3,1.4,5.3,0.7c1-0.6,13.6-38.6,13.6-38.6
			l-5.1-0.8C54.9,109.5,28.4,140.2,28.4,144z"/>
		<g id="XMLID_1758_">
			<g id="XMLID_1759_">
				<path id="XMLID_1760_" class="st4" d="M58.4,118.5c-1.9,1.6-2.1,0.6-4.8,6.4c-3.1,6.7-10,1-7.6-2.5c2-3,2.8-3.4,4.3-5.7
					c1.5-2.3,8.6-14.8,10.3-7.2C61.8,115.6,58.9,118.1,58.4,118.5z"/>
			</g>
		</g>
		<path id="XMLID_1757_" class="st5" d="M58,172.9c0,0,5.2-6.2,8,0c0,0,1.2,3.3,0.3,4.1c-0.9,0.8-5.4,4.5-9.4,3.2
			C52.8,178.9,58,172.9,58,172.9z"/>
		<path id="XMLID_1756_" class="st5" d="M79.5,172c0,0-5.2-6.2-8,0c0,0-1.2,3.3-0.3,4.1c0.9,0.8,5.4,4.5,9.4,3.2
			C84.7,178,79.5,172,79.5,172z"/>
		<path id="XMLID_1755_" class="st6" d="M53.1,121.8c0,0,2.7-25.7,28.7-13.9c0,0,0.4,9.8,2.1,13.1C83.9,121,60.9,128.5,53.1,121.8z"
			/>
		<g id="XMLID_1748_">
			<path id="XMLID_634_" class="st7" d="M65.2,105.7c-0.7,0.5-1.2,0.9-1.5,1.7c-0.2,0.4-0.2,1.1,0.4,1.4c0.8,0.3,0.1,2.4,0.8,3.2
				c0.7,0.8,1.6,0.7,2.6,0.4c1.2-0.3-0.2-0.4,0.5,0.3c0.3,0.3,0.6,0.6,1,0.8c1,0.4,1.7,0.2,2.7-0.3c0.7-0.3,0.8-0.6,1.8-0.6
				c0.4,0,0.8,0.1,1.3,0c0.9-0.3,1.3-1,1.5-1.8c0.2-0.8,0.1-0.8,0.5-1.4c0.2-0.3,0.5-0.5,0.6-0.8c0.5-0.9,0.3-2-0.3-2.8
				c-0.8-1-2.5,0-1.7,1c0.6,0.8-0.6,1.4-0.9,2c-0.4,0.8,0.2,1.4-0.9,1.7c-0.6,0.1-1.2-0.2-1.8,0.1c-0.2,0.1-0.4,0.3-0.6,0.4
				c-0.2,0.3-0.5,0.3-0.9,0.2c-0.5,0.2-0.8,0.1-0.8-0.3c-0.4-0.2-0.5-0.6-1-0.7c-0.4-0.1-1,0.3-1.3,0.3c-0.8-0.3-0.3-1.4-0.6-2.1
				c-0.3-0.6-0.7-1-1.4-1.3c0.1,0.5,0.2,0.9,0.4,1.4c0.3-0.3,0.5-0.7,0.8-1C67.3,106.7,66.3,105,65.2,105.7L65.2,105.7z"/>
		</g>
		<path id="XMLID_1747_" class="st8" d="M56.5,174.9c0,0,5.9-9.6,9.5-2c0,0,1.2,3.3,0.3,4.1c-5.8,4.8-2.2,0.6-5.8-1.7
			C57.7,173.6,56.5,174.9,56.5,174.9z"/>
		<path id="XMLID_1746_" class="st9" d="M57.8,106.4c0,0-34.7,34.4-29.4,37.6c17,10.1,16.7-27.2,29.1-34.9c0.8-0.5,4-2.6,4-2.6
			L57.8,106.4z"/>
		<path id="XMLID_1745_" class="st8" d="M81.3,174.5c0,0-4.9-8.5-9-3.8c-0.2,0.2-0.5,0.7-0.6,0.9c-0.5,1-1.5,3.6-0.5,4.4
			c4.3,3.7,2.5,1,5.2-1.2C78.9,172.9,81.3,174.5,81.3,174.5z"/>
		<path id="XMLID_1744_" class="st10" d="M58.4,164.4l1.5,6.2c0.3,1.2,1.4,2.2,2.7,2.2c0.5,0,1-0.1,1.4-0.5c1.5-1.3,1.5-8.7,1.5-8.7
			S60.4,158.9,58.4,164.4z"/>
		<path id="XMLID_1743_" class="st10" d="M79.4,164.1l-1.5,6.2c-0.3,1.2-1.4,2.2-2.7,2.2c-0.5,0-1-0.1-1.4-0.5
			c-1.5-1.3-1.5-8.7-1.5-8.7S77.3,158.5,79.4,164.1z"/>
		<path id="XMLID_1742_" class="st7" d="M53.1,121.5c0,0-14.5,31.4-12.2,35.4c0,0,21.6,15.9,50.8,5.6c0,0,7.5-18.9-2.7-32.4
			c0,0-4.4-7-5.2-9C83.9,121,63.5,127.7,53.1,121.5z"/>
		<g id="XMLID_1735_">
			<path id="XMLID_633_" class="st11" d="M41.9,156.6c1-0.4,2.2,2.2,3.1,2.6c1,0.4,1.4,0.3,2.5,0.2c1.3-0.2,0.9-1.2,2.5-0.6
				c1.9,0.7,0.4,0.6,1.4,1.6c1,1,0.3,1.3,2.1,1.8c1.3,0.4,2-0.5,3.2-0.6c1.5-0.2,1.8-0.7,3.2,0.6c0.3,0.3,0.5,1,0.9,1.3
				c0.5,0.4,1.3,0.7,2,0.7c2.9,0,1.6-1.8,5.4-0.4c1.7,0.6,1.8,1.1,3.7,0.3c1.5-0.7,1.8-2.6,4.2-1.8c0.6,0.2,0.9,1.1,1.7,1.2
				c1.5,0.3,1-0.1,2-0.4c1.2-0.4,1.4-1.7,3.3-1.5c0.1,0,0.3,0.4,0.5,0.4c1,0,1.2,0.4,2.3,0.2c1.1-0.2,3.2-3.5,3.8-2.9
				c1,0.9,2.4-0.6,1.4-1.4c-2-1.8-2.9-0.3-4.6,0.9c-2.8,2-2.9-0.9-5.6,0.3c-1.6,0.7-1.1,1.9-2.8,1.5c-1-0.2-1.6-1.4-2.6-1.6
				c-1.3-0.3-1.7,0.5-2.6,0.9c-1.8,0.8,1.4,2.2-3.5,1.6c-0.2,0-0.5-0.6-0.9-0.7c-1.1-0.1-1.2-0.5-2.6-0.2c-1.1,0.2-1.3,1-2.7,0.9
				c-2.2-0.1-1-0.3-2.3-1.6c-0.5-0.5-1.2-0.9-2-0.9c-0.8-0.1-1.5,0.4-2.2,0.5c-0.7,0.5-1.4,0.3-2.2-0.3c-1.2,0-1.9-0.5-1.8-1.6
				c-2.1-2.1-2-1.2-4.7-0.7c-2.9,0.5-2.2-0.8-4.1-1.9c-1-0.6-1.5-0.6-2.6-0.2C40.2,155.1,40.7,157,41.9,156.6L41.9,156.6z"/>
		</g>
		<g id="XMLID_1728_">
			<path id="XMLID_632_" class="st11" d="M46.5,155.3c13.1,3.9,26.6,4.8,40.1,2.8c1.3-0.2,0.7-2.1-0.5-1.9c-13.2,2-26.3,1-39.1-2.8
				C45.8,153,45.3,154.9,46.5,155.3L46.5,155.3z"/>
		</g>
		<g id="XMLID_1725_">
			<path id="XMLID_1727_" class="st4" d="M78.7,117.8c0.4,0.7,0.6,1.4,0.8,2.1c0.6,2.5,0.6,3.7,0.6,8.8c0,6,6.5,5.7,7.9-4.1
				c0.4-2.8,1.7-17-6.4-15.7C75,109.8,77.5,115.7,78.7,117.8z"/>
			<path id="XMLID_1726_" class="st12" d="M78.7,117.8c0.4,0.7,0.6,1.4,0.8,2.1c0.6,2.5,0.4,4.3,0.6,8c0.2,4.9,1.7,1.3,1.3-1.6
				c-0.4-2.9-2.2-8.4-3.2-11.6c-0.6-2.1-0.1-4.3-0.1-4.3S75.8,112.5,78.7,117.8z"/>
		</g>
		<g id="XMLID_1721_">
			<g id="XMLID_1722_">
				<path id="XMLID_1724_" class="st10" d="M74.7,149.5c0,0-0.5,9.3,4,5.8s1.6-9.7,1.6-9.7s-0.9-3.1-6.5,1.5S73.9,150.4,74.7,149.5z
					"/>
				<path id="XMLID_1723_" class="st4" d="M79.8,128.7c-0.4,2.1,1.2,0.7-1.3,6.4c-2.9,6.8-4,12.1,1.2,14c1.2,0.4,2.6-0.1,3.3-1.2
					c0.9-1.3,1.9-3.6,3-7.7c0.8-3.3,0.1-7.1,0.4-9.8C86.6,129.5,80,128,79.8,128.7z"/>
			</g>
		</g>
		<path id="XMLID_1720_" class="st3" d="M91.9,50.3c0,0-22.7-0.4-38.1,23.3c0,0-27,33.9,10.1,33.1c0,0,5.7-3.4,17,3.2
			c38.3,22.3,13.9-51.9,14.3-51.9C97.6,58.3,91.9,50.3,91.9,50.3z"/>
		<path id="XMLID_1719_" class="st9" d="M91.3,50.3c0,0-23.9,0.6-37.4,23.2c0,0-27,33.9,10.1,33.1c0,0-26.6-2.4-10.7-30.6
			c2.5-4.5,5.3-9.9,12.3-14.4C79.3,52.7,91.3,50.3,91.3,50.3z"/>
		<g id="XMLID_1684_">
			<path id="XMLID_1718_" class="st10" d="M67,102.5v5.7c0,1.2,1.1,2.2,2.3,2.2l3.4-0.9c1.1-0.1,1.7-1,1.7-2.1v-6.3L67,102.5z"/>
			<path id="XMLID_1717_" class="st13" d="M67,102.5v3.3c0,0,1.8,0.1,2.3,0c3.2-0.8,5.2-3,5.2-3v-1.7L67,102.5z"/>
			<path id="XMLID_1716_" class="st10" d="M86.4,70.7c0,0,5.6-3.5-3.1-7.4S69.9,55.5,68,59.2c-1.9,3.7-11.9,21.4-11.2,23.7
				c0,0-0.1,2.2-1.4,4.3s-3.9,5.1,0.6,9.2c4.5,4.1,5.8,5.7,9.7,7s12.6,0.1,15.1-1.4c2.4-1.5,6.7-16.2,6.5-19.8
				C87.2,78.5,86.4,70.7,86.4,70.7z"/>
			<path id="XMLID_1715_" class="st13" d="M54.6,88.6c0,0-3.5-3.8,3.4-10.1C58.1,78.5,57.6,85.2,54.6,88.6z"/>
			<g id="XMLID_1711_">
				
					<ellipse id="XMLID_1714_" transform="matrix(0.9196 0.393 -0.393 0.9196 40.701 -23.7073)" class="st14" cx="78.3" cy="87.6" rx="2.2" ry="2.7"/>
				<circle id="XMLID_1713_" class="st1" cx="78.6" cy="86.7" r="0.9"/>
				<path id="XMLID_1712_" class="st14" d="M77.2,85.4c0,0-0.9,0-1.8-0.8c0,0-0.8,0.4,1.2,1.2L77.2,85.4z"/>
			</g>
			<g id="XMLID_1707_">
				
					<ellipse id="XMLID_1710_" transform="matrix(0.9196 0.393 -0.393 0.9196 37.7194 -17.4886)" class="st14" cx="61.6" cy="83.4" rx="2" ry="2.5"/>
				<circle id="XMLID_1709_" class="st1" cx="61.9" cy="82.6" r="0.8"/>
				<path id="XMLID_1708_" class="st14" d="M60.6,81.4c0,0-0.8,0-1.7-0.7c0,0-0.8,0.3,1.1,1.1L60.6,81.4z"/>
			</g>
			<path id="XMLID_1706_" class="st14" d="M79,75.9c0,0,2.6-1.6,3.3,2.6C82.2,78.5,81.4,75.7,79,75.9z"/>
			<path id="XMLID_1705_" class="st14" d="M65,73.2c0,0-1.1-1.1-2.8,0.1L65,73.2z"/>
			<path id="XMLID_1704_" class="st15" d="M77.9,94.1c0,0,1.2-0.2,1.8-0.2c0.6,0-1.8-1.5-2.5-1.4c-0.7,0.1-1.9,0.4-1.3,0.8
				S77,94.2,77.9,94.1z"/>
			<path id="XMLID_1703_" class="st15" d="M58,88c0,0,1.1-0.2,1.6-0.2c0.5,0-1.7-1.4-2.3-1.3c-0.6,0.1-1.7,0.4-1.2,0.7
				C56.7,87.6,57.2,88.1,58,88z"/>
			<path id="XMLID_1702_" class="st16" d="M72.9,103.8l6.3,2.5l2.7-4.7C81.9,101.6,75.9,104.3,72.9,103.8z"/>
			<path id="XMLID_1701_" class="st16" d="M70.7,62.1c0.7,0.4,4.1,0.9,7.2,3.1c0,0-0.2-2.3,6.5,2.4c0,0-1.8-7.6-4.3-8.6
				C77.5,57.9,70.7,62.1,70.7,62.1z"/>
			<path id="XMLID_1700_" class="st17" d="M79.1,61.2c0,0-6.4-5.1-22.6,19.6c0,0-4.2,3.5-1.9,7.9c0,0-4.2,3.8,3.8,10
				c0,0-3.4-0.7-4.1-0.3c-0.8,0.4-0.9,0.8-2,0c-1.1-0.7-1.9-1.3-3-6c0,0-1.8,2.9-2,4.6c0,0-2.7-3.6,1.6-16.1c0,0,7-20.7,13.2-24.1
				s18.5-10.6,25.3-2.1c0,0,8-1,12.8,8.2c4.8,9.2,3.4,14.2,1.7,21.7c-1.7,7.5-7.2,15.8-7.4,16.2c-0.2,0.4-8,9.4-11.7,9.5
				c0,0-1.3-2.2-2.8-2.4s-2.9,1.3-2.9,1.3s1.2-2.2,0.9-2.8s4.1-5.2,4.3-9.2S89.9,66.9,79.1,61.2z"/>
			<path id="XMLID_1699_" class="st10" d="M89,98.2c0,0,2.1-1.8,3.4-4.6c0.8-1.6,1.9-1.6,2.8-1.4c0.7,0.2,1.2,0.9,1.2,1.7
				c0,0.9-0.4,2.4-1.9,4.4c-0.1,0.2-0.3,0.3-0.5,0.5c-0.9,0.5-3.3,1.6-5,1.1C86.9,99.3,89,98.2,89,98.2z"/>
			<g id="XMLID_1692_">
				<path id="XMLID_631_" class="st15" d="M94.2,93.6c-0.8,0.1-1.4,0.4-1.9,1c-0.4,0.5,0.3,1.2,0.7,0.7c0.3-0.4,0.7-0.7,1.2-0.7
					C94.9,94.6,94.9,93.6,94.2,93.6L94.2,93.6z"/>
			</g>
			<g id="XMLID_1685_">
				<path id="XMLID_630_" class="st18" d="M93.7,80.4c0.7,1,1,2.2,1.3,3.4c0.3,1.1,2,0.9,2-0.3c0-0.5,0-1,0-1.6
					c0-0.2,0.1-1.4-0.2-1.2c-0.4-0.1-0.8-0.1-1.2-0.2c0.4,0.4,0.5,1.4,0.7,1.9c0.3,0.6,0.8,1,1.2,1.5c0.4,0.7,1.3,0.6,1.7,0
					c0.8-1.2,0.4-2.6,0.9-3.9c-0.6,0.1-1.2,0.2-1.8,0.2c0.6,1,1.2,2.3,2.2,3.1c0.3,0.2,1,0.2,1.2-0.2c0.9-1.1,1.2-3,1.6-4.3
					c0.4-1.2-1.5-1.7-1.9-0.5c-0.2,0.6-0.4,1.2-0.6,1.8c-0.1,0.4-0.2,1.3-0.5,1.6c0.4-0.1,0.8-0.1,1.2-0.2c-0.5-0.4-1.1-1.8-1.4-2.3
					c-0.5-0.8-1.5-0.6-1.8,0.2c-0.4,1.1-0.1,2.5-0.7,3.5c0.6,0,1.2,0,1.7,0c-0.4-0.8-1.1-1.2-1.3-2.1c-0.2-0.6-0.4-1.2-0.9-1.7
					c-0.3-0.3-0.8-0.4-1.2-0.2c-1.3,0.9-0.8,3.1-0.8,4.5c0.7-0.1,1.3-0.2,2-0.3c-0.4-1.4-0.8-2.7-1.5-3.8
					C94.7,78.3,93,79.3,93.7,80.4L93.7,80.4z"/>
			</g>
		</g>
		<path id="XMLID_1683_" class="st9" d="M77.9,106.8c0,0-17.9,57.1,34.1,49.4c0,0,11.6-2.3,4.7-6.4c0,0-12.3-4.7-16.7-28.3
			C96.4,101.8,77.9,106.8,77.9,106.8z"/>
		<path id="XMLID_1682_" class="st9" d="M95.8,52.5c0,0-4.8-5.2-4.6,0.3c0.1,2.9,10.2,20.1,10.4,37.5c0.1,12.1-15.7,19.2-20.6,19.5
			c-4.9,0.3,19.7,14.9,25.9,4.7c6.1-10,14.8-15.7,2.3-47.7C105.3,56.9,101.6,57.6,95.8,52.5z"/>
		<path id="XMLID_1681_" class="st19" d="M110.9,101.2c0,0-3.1-10.3-5.4,1.4c-0.6,2.9-4.1-29.7-3.9-12.2c0.1,12.1-17.5,15.7-22.4,16
			s21.5,18.4,27.7,8.3c6.1-10,14.8-15.7,2.3-47.7C105.3,56.9,121.3,104.9,110.9,101.2z"/>
		<g id="XMLID_1674_">
			<path id="XMLID_629_" class="st3" d="M77.6,106.6c-2.7,2.1-5.2,5.9-8.8,6c-3.7,0.2-6-2.4-8.7-4.6c-0.5-0.4-1.2,0.3-0.7,0.7
				c3,2.5,5.3,5.1,9.4,4.9c4.2-0.2,6.5-3.9,9.5-6.3C78.8,106.9,78.1,106.2,77.6,106.6L77.6,106.6z"/>
		</g>
		<g id="XMLID_1667_">
			<path id="XMLID_628_" class="st3" d="M67.8,112.9c-0.8,0.9-5.1,7.3-1.8,7.4c1.4,0.1,1.9-2,2.2-3c0.3-1,1.4-3.7,0.2-4.4
				c-0.3-0.1-0.7,0-0.7,0.3c-0.3,1.7-0.1,3.4,0.7,4.9c0.5,1,1.6,2.7,2.9,2.2c3.6-1.3-1.5-6.9-3-7.8c-0.5-0.3-1.1,0.5-0.5,0.9
				c0.9,0.6,1.7,1.3,2.4,2.3c0.2,0.3,0.4,0.6,0.6,0.9c0.1,0.2,0.2,0.4,0.3,0.6c0.6,0.6,0.5,1-0.3,1.3c-0.9,0.7-0.9,0.3-1.3-0.5
				c-0.3-0.5-0.5-0.9-0.6-1.4c-0.3-1-0.3-2.1-0.2-3.1c-0.2,0.1-0.5,0.2-0.7,0.3c0.3,0.2-0.4,2.4-0.5,2.8c-0.1,0.4-0.3,1.1-0.5,1.4
				c-0.1,0.2-0.1,0.3-0.2,0.5c-0.7,0.3-1,0.2-0.8-0.2c-0.1-0.7,0.6-1.8,0.9-2.4c0.4-0.8,1-1.6,1.6-2.3
				C68.9,113.1,68.2,112.4,67.8,112.9L67.8,112.9z"/>
		</g>
		<g id="XMLID_1660_">
			<path id="XMLID_627_" class="st3" d="M67.3,118.4c0.1,2.9-0.3,5.7-1.3,8.4c-0.2,0.6,0.8,0.9,1,0.3c1-2.8,1.4-5.7,1.3-8.6
				C68.2,117.8,67.2,117.8,67.3,118.4L67.3,118.4z"/>
		</g>
		<g id="XMLID_1653_">
			<path id="XMLID_626_" class="st3" d="M67.4,117.7c0.2,2.4,1.1,4.5,2.7,6.2c0.4,0.5,1.1-0.2,0.7-0.7c-1.4-1.5-2.2-3.4-2.4-5.5
				C68.4,117.1,67.4,117.1,67.4,117.7L67.4,117.7z"/>
		</g>
		<g id="XMLID_1646_">
			<path id="XMLID_625_" class="st19" d="M94.9,61.5c5.8,8.5,6.4,17.9,6,27.9c-0.1,1.9,2.9,1.9,3,0c0.4-10.5-0.3-20.5-6.4-29.4
				C96.4,58.4,93.8,59.9,94.9,61.5L94.9,61.5z"/>
		</g>
		<g id="XMLID_1639_">
			<path id="XMLID_624_" class="st19" d="M94.9,55c-0.1-0.4-0.1-0.9-0.3-1.3c0-0.3-0.1-0.3-0.2,0.2c0,0.3-0.2,0.5-0.5,0.6
				c-0.3,0.1-0.5,0-0.7-0.1c-0.1-0.1-0.1-0.1,0,0.1c0.4,0.7,1.4,0.9,2.1,0.5c0.7-0.4,1-1.4,0.5-2.1C95,51.7,93.3,51,92.2,52
				c-1.1,1-0.5,2.5-0.2,3.7c0.2,0.8,1.1,1.3,1.8,1C94.6,56.6,95.1,55.8,94.9,55L94.9,55z"/>
		</g>
		<g id="XMLID_1632_">
			<path id="XMLID_623_" class="st19" d="M112.7,102c-1.2,6-4.8,15.3-12,16c-1.3,0.1-1.3,2.1,0,2c8.2-0.7,12.5-10.4,13.9-17.4
				C114.8,101.3,112.9,100.8,112.7,102L112.7,102z"/>
		</g>
		<g id="XMLID_1625_">
			<path id="XMLID_622_" class="st19" d="M99.7,111c1.3,0,1.3-2,0-2C98.4,109,98.4,111,99.7,111L99.7,111z"/>
		</g>
		<g id="XMLID_1618_">
			<path id="XMLID_621_" class="st9" d="M90.7,48.6c-7.7-0.3-15.4-0.4-22.3,3.6c-1.1,0.6-0.1,2.4,1,1.7c6.6-3.8,14-3.6,21.3-3.3
				C92,50.6,92,48.6,90.7,48.6L90.7,48.6z"/>
		</g>
		<g id="XMLID_1611_">
			<path id="XMLID_620_" class="st9" d="M45.4,83.9c-2.7,4.2-5.3,11.4-0.5,15.1c1,0.8,2-1,1-1.7c-3.7-2.8-0.7-9.4,1.2-12.4
				C47.9,83.9,46.1,82.9,45.4,83.9L45.4,83.9z"/>
		</g>
		<g id="XMLID_1604_">
			<path id="XMLID_619_" class="st9" d="M27.1,143.9c1.5,2.9,6.2,5.7,9.4,3.9c1.1-0.6,0.1-2.4-1-1.7c-2.2,1.2-5.7-1.3-6.6-3.1
				C28.3,141.7,26.6,142.7,27.1,143.9L27.1,143.9z"/>
		</g>
		<g id="XMLID_1597_">
			<path id="XMLID_618_" class="st9" d="M78.3,146.5c1.7,3.9,5,6.7,9,8c1.2,0.4,1.8-1.5,0.5-1.9c-3.5-1.1-6.3-3.6-7.8-7
				C79.5,144.3,77.8,145.3,78.3,146.5L78.3,146.5z"/>
		</g>
		<g id="XMLID_1590_">
			<path id="XMLID_617_" class="st11" d="M81.7,157.3c1.6,0,3.1-0.3,4.5-1c1.2-0.5,0.2-2.3-1-1.7c-1.1,0.5-2.3,0.7-3.5,0.7
				C80.4,155.2,80.4,157.2,81.7,157.3L81.7,157.3z"/>
		</g>
		<g id="XMLID_1583_">
			<path id="XMLID_616_" class="st7" d="M53.3,121.7c3,1.1,6.1,1.6,9.3,1.6c1.3,0,1.3-2,0-2c-3,0-5.9-0.5-8.8-1.5
				C52.6,119.4,52,121.3,53.3,121.7L53.3,121.7z"/>
		</g>
		<g id="XMLID_1576_">
			<path id="XMLID_615_" class="st7" d="M53.4,120.3c1.3,0.6,2.6,0.9,4,0.9c1.3,0,1.3-2,0-2c-1,0-2.1-0.2-3-0.6
				c-0.5-0.2-1.1-0.1-1.4,0.4C52.8,119.3,52.9,120,53.4,120.3L53.4,120.3z"/>
		</g>
		<g id="XMLID_1569_">
			<path id="XMLID_40_" class="st7" d="M54,118.7c0.8,0.2,1.7,0.3,2.5,0.3c0.5,0,1-0.4,1-1c0-0.5-0.5-1-1-1c-0.7,0.1-1.3,0-2-0.2
				C53.3,116.4,52.7,118.4,54,118.7L54,118.7z"/>
		</g>
		<path id="XMLID_1568_" class="st15" d="M70.7,94.1c0,0.8-4,2.3-5.2,2.3c-1.1,0-2-0.7-2-1.5s0.9-1.5,2-1.5
			C66.6,93.5,70.7,93.3,70.7,94.1z"/>
		<g id="XMLID_1565_">
			<path id="XMLID_1567_" class="st10" d="M52.1,140.5c0,0-3.6,8.6-6.2,3.4c-2.5-5.1,2.8-9.4,2.8-9.4s2.2-2.4,5.2,4.2
				C56.9,145.2,52.4,141.6,52.1,140.5z"/>
			<path id="XMLID_1566_" class="st4" d="M53.8,119.6c-0.5,2,0.3,0.2,0,6.4c-0.4,7.4-0.6,12.4-6.1,11.9c-1.3-0.1-2.3-1.2-2.5-2.5
				c-0.2-1.5,0.1-4.5,2-8.3c1.8-3.8,2.5-6.4,3.4-8.9C50.9,117.3,54,118.9,53.8,119.6z"/>
		</g>
	</g>
</g>
</svg>
