<?xml version="1.0" encoding="utf-8"?>
<!-- Generator: Adobe Illustrator 19.0.0, SVG Export Plug-In . SVG Version: 6.00 Build 0)  -->
<svg version="1.1" id="Layer_1" xmlns="http://www.w3.org/2000/svg" xmlns:xlink="http://www.w3.org/1999/xlink" x="0px" y="0px"
	 viewBox="0 0 148.8 217.8" style="enable-background:new 0 0 148.8 217.8;" xml:space="preserve">
<style type="text/css">
	.st0{fill:#A38B33;}
	.st1{fill:#FFFFFF;}
	.st2{fill:#C6C98A;}
	.st3{fill:#F15E54;}
	.st4{fill:#D92D28;}
	.st5{fill:#ACDCD6;}
	.st6{fill:#373A3A;}
	.st7{fill:#788F6F;}
</style>
<g id="XMLID_2381_">
	<g id="XMLID_2417_">
		<rect id="XMLID_2420_" x="0" class="st0" width="148.8" height="217.8"/>
		<rect id="XMLID_2419_" x="6.5" y="9.5" class="st1" width="135.8" height="198.8"/>
		<path id="XMLID_2418_" class="st2" d="M24.9,70c0,0,1.5-32.8,5.2-37.5s5.6,1.6,12.7,4.7s17.9-23.4,29.9-10.9s12,10.9,18.7,12.5
			c6.7,1.6,38.9,14.1,38.9,34.4S91,209,72.3,193.4S10.7,180.9,20,140.3S8.8,116.9,24.9,70z"/>
	</g>
	<g id="XMLID_2382_">
		<g id="XMLID_2390_">
			<g id="XMLID_2410_">
				<path id="XMLID_704_" class="st1" d="M72.9,132.8c0.8,2.8,1.6,5.7,2.4,8.5c0.5,1.9,3.4,1.1,2.9-0.8c-0.8-2.8-1.6-5.7-2.4-8.5
					C75.3,130.2,72.4,131,72.9,132.8L72.9,132.8z"/>
			</g>
			<path id="XMLID_2409_" class="st3" d="M84.5,97.9l7.8,1.9c0,0,11.4,3.3,15.5,2.6c4.1-0.8,4.6,1.1,0,9.3s-13.7,24.9-39.7,24.3
				s-28.3-19-28.3-19S34.1,81.5,63,86.8C83.1,90.6,84.5,97.9,84.5,97.9z"/>
			<path id="XMLID_2408_" class="st4" d="M90.4,102.9c0,0,19.6-30.6-13.7-7.3c0,0-15.5,19.2-5,21.5c10.5,2.3,28.8-1.4,29.2-8.7
				C101.4,101.1,93.2,103.4,90.4,102.9z"/>
			<path id="XMLID_2407_" class="st5" d="M68.1,102.5c0,7.6-9,15.7-15.6,13.4c-5.9-2.1-9.7-5.8-9.7-13.4s5.6-13.8,12.6-13.8
				S68.1,94.9,68.1,102.5z"/>
			<ellipse id="XMLID_2406_" class="st6" cx="54.2" cy="100.6" rx="7.5" ry="8.1"/>
			<circle id="XMLID_2405_" class="st1" cx="49" cy="95.8" r="3.5"/>
			<g id="XMLID_2398_">
				<path id="XMLID_703_" class="st1" d="M40.5,97.6c-2.6,0-5.3,0-7.9,0c-1.3,0-1.3,2,0,2c2.6,0,5.3,0,7.9,0
					C41.8,99.6,41.8,97.6,40.5,97.6L40.5,97.6z"/>
			</g>
			<g id="XMLID_2391_">
				<path id="XMLID_699_" class="st1" d="M82.7,130.5c1.3,2.6,2.6,5.3,4,7.9c0.9,1.7,3.5,0.2,2.6-1.5c-1.3-2.6-2.6-5.3-4-7.9
					C84.4,127.3,81.8,128.8,82.7,130.5L82.7,130.5z"/>
			</g>
		</g>
		<g id="XMLID_2383_">
			<path id="XMLID_698_" class="st7" d="M78.9,86.5c-8.6-3.9-17.9-8.1-27.6-6.1c-3.9,0.8-7.7,2.6-10.5,5.4c-1.5,1.5-2.6,4.4-4.5,5.3
				c-2,0.8-4.6,0.6-6.6,1.1c-3.5,0.9-7,2.7-8.2,6.4c-0.9,2.8-0.5,6.3,2.1,8c1.4,0.9,3,1,4.5,1.2c1.6,0.3,2.3,0.7,2.7,2.4
				c0.3,1.4,0.3,2.9,0.5,4.2c0.7,5.3,2.1,10.5,4.1,15.4c1.5,3.7,3.3,7.6,6.8,9.9c3.5,2.3,7.9,2.6,11.9,2.2c4-0.4,9.8-3.1,12.7,0.9
				c1.9,2.7,2.6,6.1,5.4,8.1c3.5,2.5,7.8,1.3,11.3-0.4c2.3-1.1,4.5-2.3,6.8-3.5c2.1-1.1,4.5-2,6.4-3.5c3.1-2.3,2.6-5.3,1.3-8.5
				c-1-2.2-1.5-3.5,0.8-5.1c1.8-1.2,3.6-2.4,5.3-3.8c7.1-6,13.2-15.2,14.2-24.6c0.4-4.2-1.2-8.6-5.6-9.8c-5-1.4-9.4,1.5-13.2,4.4
				c0.7,0.3,1.5,0.6,2.2,0.9c-1.2-3.8,1.8-7.6,0.8-11.5c-0.8-3-3.4-5.2-6.2-6.3c-7.8-3-14.6,2.9-19.8,8c-1.4,1.4,0.7,3.5,2.1,2.1
				c4.4-4.3,10.4-10,17-7.2c3.1,1.3,4.6,3.8,3.9,7.2c-0.6,2.9-1.7,5.5-0.7,8.4c0.3,0.8,1.4,1.5,2.2,0.9c3.1-2.4,7.7-5.9,11.8-3.7
				c4.1,2.2,2.4,7.9,1.3,11.4c-2.4,7.5-7.3,14.2-13.6,18.9c-2.2,1.6-5.8,2.9-6.3,5.9c-0.5,3,2.8,5.8,1.9,8.6
				c-0.5,1.7-3.3,2.6-4.7,3.4c-2,1.1-4.1,2.1-6.1,3.2c-3.5,1.8-8.9,5.1-12.2,1.1c-1.8-2.2-2.4-5.1-4.3-7.2c-2.1-2.5-4.9-3-8-2.5
				c-8.1,1.3-16.5,2.9-20.9-5.8c-2.1-4.1-3.6-8.6-4.6-13.1c-0.5-2.3-0.9-4.5-1.1-6.8c-0.2-1.7-0.1-3.6-1.1-5.1
				c-2-2.9-5.7-1.2-7.9-3.2c-3.2-2.8,0.8-7.1,3.4-8.1c3.4-1.4,8.4-0.5,11.1-3.3c1.4-1.5,2.1-3.4,3.6-4.8c1.6-1.6,3.6-2.7,5.7-3.5
				c9.7-3.5,19.7,0.9,28.5,4.9C79.1,89.9,80.6,87.3,78.9,86.5L78.9,86.5z"/>
		</g>
	</g>
</g>
</svg>
