<?xml version="1.0" encoding="utf-8"?>
<!-- Generator: Adobe Illustrator 19.0.0, SVG Export Plug-In . SVG Version: 6.00 Build 0)  -->
<svg version="1.1" id="Layer_1" xmlns="http://www.w3.org/2000/svg" xmlns:xlink="http://www.w3.org/1999/xlink" x="0px" y="0px"
	 viewBox="0 0 148.8 217.8" style="enable-background:new 0 0 148.8 217.8;" xml:space="preserve">
<style type="text/css">
	.st0{fill:#A38B33;}
	.st1{fill:#FFFFFF;}
	.st2{fill:#C6C98A;}
	.st3{fill:#4A4947;}
	.st4{fill:#E7322A;}
	.st5{fill:#3C3B38;}
	.st6{fill:#81807F;}
	.st7{fill:#F1F8F6;}
	.st8{fill:#282725;}
</style>
<g id="XMLID_2714_">
	<g id="XMLID_2796_">
		<rect id="XMLID_2799_" x="0" class="st0" width="148.8" height="217.8"/>
		<rect id="XMLID_2798_" x="6.5" y="9.5" class="st1" width="135.8" height="198.8"/>
		<path id="XMLID_2797_" class="st2" d="M30.7,74.1c0,0,1.5-32.8,5.2-37.5s5.6,1.6,12.7,4.7s17.9-23.4,29.9-10.9s12,10.9,18.7,12.5
			c6.7,1.6,38.9,14.1,38.9,34.4S96.9,213.1,78.2,197.5S16.5,185,25.9,144.4S14.7,121,30.7,74.1z"/>
	</g>
	<g id="XMLID_2715_">
		<path id="XMLID_2795_" class="st3" d="M84.7,123.6l-34.9-1.7c0,0-7.7,7.1-5.8,11.4c0,0,0.4-1.4,2.1-4.5c0,0,0.2,3,1.7,3.8
			c0,0-0.5-4.9,1.2-5.4c0,0-0.8,3.2,1,3.8c0,0-0.1-6.1,2.3-4.7c0,0,1.3-2.4,5.7-1.3s30.1,3.5,30.1,3.5l-2-4.3"/>
		<path id="XMLID_2794_" class="st4" d="M39.1,106.3c0,0-12.9,1.4-17.1,11.2c0,0-1.9,5.7,4.1,5.2c0,0,2.8-0.5,2.6-4.2
			c-0.2-4.3,6.9-9,6.9-9L39.1,106.3z"/>
		<path id="XMLID_2793_" class="st5" d="M67.5,95.5l16.2,28.7l-11.3-1.1c-4.8-0.5-9.4-2.6-12.9-6l-11.7-11.4l0.7,2.7l-3-1.1l0.7,2.9
			l-2.3,0.6l0.9,3.7l-4-0.4l0.7,2.9l-3.5,0.6l0.6,2.2l-5.9,1.5c0,0,4.5,3,2.3,3.6c-2.2,0.6,0.6,3.1,0.6,3.1L32,127
			c0,0,5,5.8-3.2-0.7l-3.1,2.5l-7.5-4.2c0,0,3.1-5.4,8-8.7s8.2-9.2,8.2-9.2l-4.9,3c0,0-10.6,11.4-12.2,11.8c-1.6,0.4-9-4.2-8.2-5.8
			c2.6-5.5,30.4-23.3,30.4-23.3l-3-11.8l9.6,8c0,0,1.2-2,5.2,0.5C55.2,91.5,67.5,95.5,67.5,95.5z"/>
		<path id="XMLID_2792_" class="st5" d="M89.5,129.5L56.4,127c0,0-10.4,10.8-7.6,16.1c0,0,0.9-3.6,2.5-5.7c0,0-1.6,6.5,1.3,7.1
			c0,0-1-4.4,1-6.3c0,0-0.4,4.7,2.7,5.1c0,0-1.8-3.5-0.4-4.9c0,0,1.7-1.5,1.2-3.5c0,0-0.7-7.9,13.9-2.8l22.4,3.6L89.5,129.5z"/>
		<polygon id="XMLID_2791_" class="st6" points="39.9,86 43.6,89.2 41.6,91.2 		"/>
		<polygon id="XMLID_2790_" class="st3" points="47.1,82.2 50.4,91.4 44.9,92.9 		"/>
		<g id="XMLID_2787_">
			<line id="XMLID_2789_" class="st1" x1="52.5" y1="94.7" x2="55.9" y2="96.7"/>
			
				<rect id="XMLID_2788_" x="52.2" y="95.4" transform="matrix(0.867 0.4982 -0.4982 0.867 54.9001 -14.2781)" class="st7" width="3.9" height="0.6"/>
		</g>
		<g id="XMLID_2784_">
			<line id="XMLID_2786_" class="st1" x1="58.4" y1="101.1" x2="61.2" y2="103.9"/>
			
				<rect id="XMLID_2785_" x="57.8" y="102.2" transform="matrix(0.7166 0.6975 -0.6975 0.7166 88.4299 -12.6505)" class="st7" width="3.9" height="0.6"/>
		</g>
		<g id="XMLID_2781_">
			<line id="XMLID_2783_" class="st1" x1="54.7" y1="106.2" x2="57" y2="109.4"/>
			
				<rect id="XMLID_2782_" x="53.9" y="107.5" transform="matrix(0.5959 0.8031 -0.8031 0.5959 109.1651 -1.2669)" class="st7" width="3.9" height="0.6"/>
		</g>
		<g id="XMLID_2778_">
			<line id="XMLID_2780_" class="st1" x1="61.5" y1="115.2" x2="63.9" y2="118.4"/>
			
				<rect id="XMLID_2779_" x="60.7" y="116.5" transform="matrix(0.5959 0.8031 -0.8031 0.5959 119.1376 -3.127)" class="st7" width="3.9" height="0.6"/>
		</g>
		<path id="XMLID_2777_" class="st3" d="M71.4,102.4c0,0,26.4,8.4,28.7,12.5s7.9,18.6,7.8,22.4c-0.2,3.8-4.5,20.9-4.5,20.9
			s-6.9,1.2-6.9,4.4s3.7,8.5,6.9,9.5c0,0,7.3,5.5-10.9,4.5s-10.7,1.7-11.1,2.2c-0.4,0.5-13.3-3.5-2.1-9.3
			c11.2-5.9,13.7,1.7,13.7,1.7l-2.8-8.5c0,0-2.6-6-0.2-7.7c2.5-1.7,5-9.2,2-14.4c-3-5.2-9-8.2-9-8.2l-5.5-7.4L71.4,102.4z"/>
		<g id="XMLID_2774_">
			<line id="XMLID_2776_" class="st1" x1="65.3" y1="104.4" x2="68.4" y2="106.8"/>
			
				<rect id="XMLID_2775_" x="64.9" y="105.3" transform="matrix(0.7895 0.6138 -0.6138 0.7895 78.8793 -18.8224)" class="st7" width="3.9" height="0.6"/>
		</g>
		<path id="XMLID_2773_" class="st5" d="M67.5,95.5c0,0,32.3,11.9,35.1,16.9c2.8,4.9,9.5,22.2,9.3,26.8s-5.4,25.1-5.4,25.1
			s-8.3,1.5-8.3,5.3c0,3.8,4.5,10.2,8.3,11.3c0,0,8.7,6.5-13,5.3c-21.7-1.2-14.4,2-14.8,2.6s-16-4.2-2.6-11.2c13.4-7,18,2.1,18,2.1
			l-3.4-10.2c0,0-3.2-7.2-0.2-9.2c3-2,5.9-11,2.4-17.2c-3.6-6.3-11.3-10-11.3-10l-9.3-10L67.5,95.5z"/>
		<g id="XMLID_2770_">
			<line id="XMLID_2772_" class="st1" x1="72" y1="110.1" x2="75.1" y2="112.5"/>
			
				<rect id="XMLID_2771_" x="71.6" y="111" transform="matrix(0.7895 0.6138 -0.6138 0.7895 83.811 -21.7126)" class="st7" width="3.9" height="0.6"/>
		</g>
		<g id="XMLID_2767_">
			<line id="XMLID_2769_" class="st1" x1="82.1" y1="103.7" x2="85.2" y2="106.1"/>
			
				<rect id="XMLID_2768_" x="81.7" y="104.6" transform="matrix(0.7895 0.6138 -0.6138 0.7895 82.0187 -29.2573)" class="st7" width="3.9" height="0.6"/>
		</g>
		<g id="XMLID_2764_">
			<line id="XMLID_2766_" class="st1" x1="84.6" y1="115.9" x2="87.7" y2="118.3"/>
			
				<rect id="XMLID_2765_" x="84.1" y="116.8" transform="matrix(0.7895 0.6138 -0.6138 0.7895 90.0009 -28.2014)" class="st7" width="3.9" height="0.6"/>
		</g>
		<g id="XMLID_2761_">
			<line id="XMLID_2763_" class="st1" x1="95" y1="116.5" x2="98.1" y2="118.9"/>
			
				<rect id="XMLID_2762_" x="94.6" y="117.4" transform="matrix(0.7895 0.6138 -0.6138 0.7895 92.5909 -34.4831)" class="st7" width="3.9" height="0.6"/>
		</g>
		<g id="XMLID_2758_">
			<line id="XMLID_2760_" class="st1" x1="95.4" y1="123.6" x2="98.2" y2="126.4"/>
			
				<rect id="XMLID_2759_" x="94.8" y="124.7" transform="matrix(0.6953 0.7187 -0.7187 0.6953 119.3196 -31.4719)" class="st7" width="3.9" height="0.6"/>
		</g>
		<g id="XMLID_2755_">
			<line id="XMLID_2757_" class="st1" x1="83.7" y1="126.3" x2="86.8" y2="128.7"/>
			
				<rect id="XMLID_2756_" x="83.2" y="127.2" transform="matrix(0.7895 0.6138 -0.6138 0.7895 96.22 -25.4534)" class="st7" width="3.9" height="0.6"/>
		</g>
		<g id="XMLID_2752_">
			<line id="XMLID_2754_" class="st1" x1="105.4" y1="139.9" x2="105.5" y2="143.9"/>
			
				<rect id="XMLID_2753_" x="103.5" y="141.6" transform="matrix(1.429330e-002 0.9999 -0.9999 1.429330e-002 245.8361 34.3957)" class="st7" width="3.9" height="0.6"/>
		</g>
		<g id="XMLID_2749_">
			<line id="XMLID_2751_" class="st1" x1="98.6" y1="135.9" x2="98.7" y2="139.8"/>
			
				<rect id="XMLID_2750_" x="96.7" y="137.5" transform="matrix(1.425372e-002 0.9999 -0.9999 1.425372e-002 235.0575 37.2319)" class="st7" width="3.9" height="0.6"/>
		</g>
		<g id="XMLID_2746_">
			<line id="XMLID_2748_" class="st1" x1="100.1" y1="154.6" x2="98.5" y2="158.2"/>
			
				<rect id="XMLID_2747_" x="99" y="154.4" transform="matrix(0.9201 0.3917 -0.3917 0.9201 69.1938 -26.4)" class="st7" width="0.6" height="3.9"/>
		</g>
		<g id="XMLID_2743_">
			<line id="XMLID_2745_" class="st1" x1="96.1" y1="150.7" x2="96" y2="154.6"/>
			
				<rect id="XMLID_2744_" x="95.7" y="150.7" transform="matrix(0.9994 3.320103e-002 -3.320103e-002 0.9994 5.1202 -3.1051)" class="st7" width="0.6" height="3.9"/>
		</g>
		<g id="XMLID_2740_">
			<line id="XMLID_2742_" class="st1" x1="101.6" y1="159.9" x2="99.3" y2="163.1"/>
			
				<rect id="XMLID_2741_" x="100.1" y="159.5" transform="matrix(0.8139 0.581 -0.581 0.8139 112.5314 -28.3034)" class="st7" width="0.6" height="3.9"/>
		</g>
		<g id="XMLID_2737_">
			<line id="XMLID_2739_" class="st1" x1="94.4" y1="165.4" x2="95.4" y2="161.6"/>
			
				<rect id="XMLID_2738_" x="94.6" y="161.6" transform="matrix(0.9643 0.2646 -0.2646 0.9643 46.6641 -19.2911)" class="st7" width="0.6" height="3.9"/>
		</g>
		<g id="XMLID_2734_">
			<line id="XMLID_2736_" class="st1" x1="93.9" y1="173.4" x2="93.1" y2="169.5"/>
			
				<rect id="XMLID_2735_" x="91.5" y="171.1" transform="matrix(0.2134 0.977 -0.977 0.2134 241.0602 43.5402)" class="st7" width="3.9" height="0.6"/>
		</g>
		<g id="XMLID_2731_">
			<line id="XMLID_2733_" class="st1" x1="74.1" y1="118.3" x2="77.2" y2="120.7"/>
			
				<rect id="XMLID_2732_" x="73.7" y="119.2" transform="matrix(0.7895 0.6138 -0.6138 0.7895 89.2624 -21.2761)" class="st7" width="3.9" height="0.6"/>
		</g>
		<g id="XMLID_2728_">
			<line id="XMLID_2730_" class="st1" x1="66.9" y1="115.5" x2="70" y2="118"/>
			
				<rect id="XMLID_2729_" x="66.5" y="116.4" transform="matrix(0.7895 0.6138 -0.6138 0.7895 86.0712 -17.4595)" class="st7" width="3.9" height="0.6"/>
		</g>
		<g id="XMLID_2725_">
			<line id="XMLID_2727_" class="st1" x1="60.8" y1="96.3" x2="64.4" y2="97.8"/>
			
				<rect id="XMLID_2726_" x="60.6" y="96.7" transform="matrix(0.9221 0.387 -0.387 0.9221 42.4292 -16.6624)" class="st7" width="3.9" height="0.6"/>
		</g>
		<polygon id="XMLID_2724_" class="st5" points="134.8,111.7 117.2,141.9 108.8,147.7 108.8,151.7 129,146.1 124.2,143 136.5,134.8 
			130.1,134 134.8,123.2 139,119.2 134.1,118.1 		"/>
		<g id="XMLID_2721_">
			<g id="XMLID_2722_">
				<path id="XMLID_2723_" class="st5" d="M68.3,131.5c7.3,2.7,14.9,4.4,22.6,5.1c0.4,0,0.5-0.6,0.1-0.6c-7.7-0.7-15.2-2.4-22.5-5.1
					C68.2,130.8,68,131.4,68.3,131.5L68.3,131.5z"/>
			</g>
		</g>
		<g id="XMLID_2718_">
			<g id="XMLID_2719_">
				<path id="XMLID_2720_" class="st5" d="M45.5,103.7c3,4.6,6.6,8.7,10.9,12.1c0.3,0.3,0.8-0.2,0.5-0.5c-4.3-3.4-7.9-7.4-10.8-12
					C45.8,103.1,45.2,103.4,45.5,103.7L45.5,103.7z"/>
			</g>
		</g>
		
			<ellipse id="XMLID_2717_" transform="matrix(0.9966 -8.206145e-002 8.206145e-002 0.9966 -7.8908 3.6511)" class="st1" cx="40.5" cy="97.8" rx="1.3" ry="1.7"/>
		<path id="XMLID_2716_" class="st8" d="M9,115.6c0,0,1-1.9,3.9-4.3s2.1,2.9,1.8,3.3c-0.3,0.3-3,0.2-2.7,1c0.3,0.7,0,3.6,0,3.6
			S8.6,117.3,9,115.6z"/>
	</g>
</g>
</svg>
