<?xml version="1.0" encoding="utf-8"?>
<!-- Generator: Adobe Illustrator 19.0.0, SVG Export Plug-In . SVG Version: 6.00 Build 0)  -->
<svg version="1.1" id="Layer_1" xmlns="http://www.w3.org/2000/svg" xmlns:xlink="http://www.w3.org/1999/xlink" x="0px" y="0px"
	 viewBox="0 0 148.8 217.8" style="enable-background:new 0 0 148.8 217.8;" xml:space="preserve">
<style type="text/css">
	.st0{fill:#A38B33;}
	.st1{fill:#FFFFFF;}
	.st2{fill:#C6C98A;}
	.st3{fill:#F6C8B6;}
	.st4{fill:#F0D2C7;}
	.st5{fill:#A4675E;}
	.st6{fill:#735745;}
	.st7{fill:#453D25;}
	.st8{fill:#6B4935;}
	.st9{fill:#D1B2A1;}
	.st10{fill:#675243;}
	.st11{fill:#6A3F31;}
	.st12{fill:#FFFEFE;}
	.st13{fill:#35271B;}
	.st14{fill:#1B1613;}
	.st15{fill:#442E17;}
	.st16{fill:#5A3D1E;}
	.st17{fill:#342112;}
	.st18{fill:#574E31;}
	.st19{fill:#4A4129;}
	.st20{fill:#271B13;}
	.st21{fill:#4F2711;}
	.st22{fill:#D3B7A9;}
</style>
<g id="XMLID_734_">
	<g id="XMLID_1343_">
		<rect id="XMLID_1355_" class="st0" width="148.8" height="217.8"/>
		<rect id="XMLID_1349_" x="6.5" y="9.5" class="st1" width="135.8" height="198.8"/>
		<path id="XMLID_689_" class="st2" d="M24.9,70c0,0,1.5-32.8,5.2-37.5s5.6,1.6,12.7,4.7s17.9-23.4,29.9-10.9s12,10.9,18.7,12.5
			c6.7,1.6,38.9,14.1,38.9,34.4S91,209,72.3,193.4S10.7,180.9,20,140.3S8.8,116.9,24.9,70z"/>
	</g>
	<g id="XMLID_11515_">
		<polygon id="XMLID_17486_" class="st3" points="73.9,95.7 73.9,106.2 83.7,105.6 83.7,93.9 		"/>
		<g id="XMLID_17487_">
			<path id="XMLID_17520_" class="st4" d="M71.3,37.7c0,0-14.4,6.5-21.9,25.3c-3.1,7.7,5.7,24,13.9,33.2c1.1,1.3,3.5,4.3,5.5,4.4
				c4.1,0.2,12.1-5.4,17.1-7.7c14.6-6.6,18.7-13.2,19.9-24c0.1-1.2,7.5-4.7,2.3-11.1C100.3,48.6,79.9,34.2,71.3,37.7z"/>
			<path id="XMLID_17518_" class="st5" d="M64.7,79.5c0,0,5,4,8.5-2.3C73.2,77.2,71.8,79.1,64.7,79.5z"/>
			<path id="XMLID_17510_" class="st6" d="M56.3,48.3c0,0-6.3,10.9-6.1,13.2c0,0,3.2-8,8-11.2C60.4,48.9,56.3,48.3,56.3,48.3z"/>
			<path id="XMLID_17507_" class="st7" d="M92.4,26.9c0,0-12.4,3.7-17.4-1c-5-4.7-7.8,11.8-21.1,14.4C40.6,42.8,42,44,34,42.4
				s66.5,23,76.9,5.9c12.5-20.5-5.3-5.8-9.3-5.3C97.6,43.5,95.5,26.1,92.4,26.9z"/>
			<path id="XMLID_17505_" class="st6" d="M55,49.4c0,0,19.9,6.4,37.5,5.7c0,0,8.3,4.7,7,10.1c0,0,6.1-9.5,8.8-6.8
				c0,0,0.7-10.2-15.8-11.9c-16-1.7-32.6-7.1-47,1.4L55,49.4z"/>
			<path id="XMLID_17489_" class="st6" d="M99,70.1c0,0,4.2-3.4,7.7,0.6c1.8,2.1,0,5.8,0,5.8s-0.6-0.2-1-2.1c-0.6-2.5,0.4,2.3-1,6.7
				c0,0-0.4-1.1-1.2-2.6c0,0,0.7,5.3-1.6,8.7c0,0-1.2-1.1-1.6-2.6c0,0-1,5.7-4.7,7.9c-3.6,2.2-5.7-2.2-11.1,4
				c-5.5,6.2-3.8,1.9-8.5,4.9c-4.7,3-8.8,3.3-14.6-3.5c-5.9-6.8-6.7-4.1-8.3-8c-1.7-3.9-3.7-6.4-2.4-10.5c0,0-0.1-1.6-0.6,0.4
				c-0.2,0.9-1.9,2.2-1.9,2.2s-2.3-5.4-1.6-9c0.5-2.7,0.4-5.1,0.3-4.2c-0.4,3.7-1.3,4-1.3,4s-1.8-5.8,1.6-9.5
				c3.3-3.5,3.7-3.3,3.7-3.3s-2,5,2.2,15.9c2.4,6.1,4.3,10.6,6.8,10.5c2.5-0.1,3.2-3.7,5.5-4.2c4-0.9,7.3-2.2,9.4-0.9
				c2.1,1.3,7.9,7.4,9.9,4.4C86.8,82.7,93.8,82.7,99,70.1z"/>
			<path id="XMLID_17345_" class="st8" d="M55.1,55.7c0,0,3.7-5.6,7.7-1.9c0,0-0.1-0.3,1.6-0.4c1.7-0.1,1.2,1.1,1.5,2.3
				s0.4,1.2-2.7,0s-5.8,0.8-7,0.4C55.1,55.7,55.1,55.7,55.1,55.7z"/>
			<path id="XMLID_17334_" class="st8" d="M83.9,55.6c0,0-3.8-6.8-8.6-2.8c0,0,0.2-0.4-1.8-0.6c-1.9-0.2-1.5,1.2-1.9,2.5
				c-0.4,1.3-0.6,1.4,3,0.2c3.6-1.2,6.6,1.3,7.9,1C83.9,55.6,83.9,55.6,83.9,55.6z"/>
			<path id="XMLID_11982_" class="st9" d="M64.7,63.8c0,0-7.2,0.3-9.6,0.2c-2.4-0.1-1.8,4.6,3.3,6.5c2.1,0.8,4,0.5,5.6-0.2
				c0.7-0.3,0-1,1.4-2.2c1.4-1.1,1.3,0,1.8-0.2c2-0.9,0.6-2.4,0.5-2.6C66.7,63.9,64.7,63.8,64.7,63.8z"/>
			<path id="XMLID_11979_" class="st8" d="M65.2,74.3c0,0-9.3-1.4-14.9,9.3c0,0,6.8,4.4,11.9-1.6c5.1-6,5.4-5,8.4-3.7
				s10.3,4,13.4,0.6C83.9,78.9,79.2,66.5,65.2,74.3z"/>
			<path id="XMLID_11976_" class="st10" d="M55.9,39.7c0,0,7.7-2,40.8,4.3c0,0,4.3,0.4,4.9-1c0,0,2.1,4-7.6,1.9S55.9,39.7,55.9,39.7
				z"/>
			<g id="XMLID_11980_">
				<ellipse id="XMLID_17412_" class="st11" cx="61.3" cy="59.8" rx="2.6" ry="3.1"/>
				<circle id="XMLID_17405_" class="st1" cx="61.9" cy="59" r="1.1"/>
				<ellipse id="XMLID_17388_" class="st11" cx="74.3" cy="59.8" rx="2.6" ry="3.1"/>
				<circle id="XMLID_17419_" class="st1" cx="74.9" cy="59" r="1.1"/>
			</g>
		</g>
		<g id="XMLID_11517_">
			<g id="XMLID_17482_">
				<g id="XMLID_17483_">
					<path id="XMLID_17485_" class="st12" d="M65.5,118.2c-0.7,0.4-1.3,0.9-1.9,1.5c-1.9,2-4.6,5.2-6.9,12.2c-2.6,8-9.9-1.1-7.6-5.4
						c1.9-3.7,2.7-4.3,4.1-7c1.4-2.8,7.5-16.7,14.4-11.2C73.2,112.8,67.7,116.8,65.5,118.2z"/>
				</g>
			</g>
			<path id="XMLID_17481_" class="st13" d="M71.5,185.8c0,0,5.2-6.1,7.9,0c0,0,0.8,2.8,0.2,3.9c-1.3,2.6-16.8,8.9-20.8,7.6
				C54.8,196,71.5,185.8,71.5,185.8z"/>
			<path id="XMLID_17480_" class="st13" d="M89.7,185.1c0,0-5.5-6-8.2,0.1c0,0-0.8,3-0.3,4.1c0.6,1.2,13.5,7.6,20.7,6.7
				C106,195.5,89.7,185.1,89.7,185.1z"/>
			<path id="XMLID_17479_" class="st14" d="M67.8,188.2c0,0,9.1-9.6,12-2.4c0,0,0.9,3.3,0,4.1c-5.8,4.8-2.2,0.6-5.8-1.7
				C71.2,186.5,67.8,188.2,67.8,188.2z"/>
			<path id="XMLID_17478_" class="st14" d="M92.4,187c0,0-1.6-2.3-3.4-3.4c-2.6-1.7-5.5-2.9-7.6,1.7c0,0-1.2,3.3-0.3,4.1
				c4.3,3.6,2.5,1,5.1-1.2C88.7,186.1,92.4,187,92.4,187z"/>
			<path id="XMLID_17477_" class="st15" d="M65.1,150.6c0,0-0.4-8.1,14.5-5.3s14.2,4.6,14.7,7.9c0.4,2.8-3.8,23.5-5.2,30.1
				c-0.3,1.2-1.3,2.2-2.5,2.4c-0.9,0.1-3.3-0.3-4.1-1.2c-2.4-2.9-2.5-15.7-3.8-17.6c-0.3-0.5,1.9,7.8,1,17.7
				c-0.2,2.1-5.9,1.7-7.2-0.1C69.7,180.2,65.1,162.2,65.1,150.6z"/>
			<path id="XMLID_17476_" class="st16" d="M75.9,153.8c0,0,0.4,5.7,1.9,6.4c1.4,0.7,3,0,3,0S76.8,160.7,75.9,153.8z"/>
			<path id="XMLID_17475_" class="st17" d="M83.2,153.8c0,0,4.8,6,9.6,3C92.8,156.8,88.7,157.4,83.2,153.8z"/>
			<path id="XMLID_17474_" class="st17" d="M70.5,153.8c0,0-2.5,6-5,3C65.6,156.8,67.7,157.4,70.5,153.8z"/>
			<path id="XMLID_17473_" class="st18" d="M62.7,107.3c0,0,4.1-3.5,10.9-4.6c0.2,0,0.5,1.8,4.6,1.8c6.1,0.1,5.9-1.9,6.2-1.8
				c3.1,1,6.7,2.1,10.5,4.3c0,0,3.1,8.6-1.1,24.8c-2.7,10.3,1.6,17.7,1.6,17.7S83.8,154,74,153.8l0-3.8c-2-0.1-2.6,3.5-2.7,3.5
				c-3.8,0-6.5-1.9-8.8-4.9C62.5,148.6,54.7,120.1,62.7,107.3z"/>
			<g id="XMLID_17469_">
				<path id="XMLID_17470_" class="st19" d="M62,114.5c0,0-3.7,6.6-1,9.7s8,1.6,8.2-1.2c0.2-2.7-0.7-5.9-0.2-8.9
					C69,114.2,63.1,115.2,62,114.5z"/>
			</g>
			<path id="XMLID_17465_" class="st17" d="M75.3,106.2c0,0-4.1,39.7-3.3,47.4c0,0,2.1-3.5,2.6-3.5c0,0,0-21.8,0.5-37.8
				C75.2,110.1,75.2,108.1,75.3,106.2z"/>
			<g id="XMLID_17454_">
				<path id="XMLID_17462_" class="st19" d="M69.7,114.5c0,0,5,7.5,1.8,11.2c-3.2,3.7-10.1,2.2-10.5-1c-0.4-3.1,0.7-6.8-0.1-10.2
					C60.8,114.4,68.4,115.3,69.7,114.5z"/>
				<g id="XMLID_17455_">
					<g id="XMLID_17458_">
						<path id="XMLID_17459_" class="st20" d="M6.7,96.4l-0.5,1.4l22.1,8.3c0.5,2.3,2.5,2.7,2.5,2.7l32,10.5l0.6-1.5l-2.7-1l0.4-1.2
							l6.4,2.3l-0.2,0.5l4.7,1.8l1.5-4l-4.6-1.8l-0.2,0.5l-13.8-5.2c0,0,0.4-1.1-0.8-1.6c-1.2-0.5-1.6,0.7-1.6,0.7l-8-3
							c-1.1-1.7-5.2-2.8-5.2-2.8l-1.8,4.6c4.1,1.9,5.8,1.2,5.8,1.2l6,2.3l-0.5,1.3L10,97.7l0.7-1.8l-1.1-0.6
							C8.7,97,6.7,96.4,6.7,96.4z M59.5,115.1l-0.5,1.2l-9.1-3.4l0.5-1.3L59.5,115.1z"/>
					</g>
					<path id="XMLID_17457_" class="st21" d="M96.9,132.8c0,0-1.3,8.9-8.7,14.6l-16.5-15.2l-2.4,0.7c0,0-3.3-1.3-2-4.6
						c0,0-0.3-2.4-3.7-3.5c0,0-22.2-9.3-33.3-16.3l0.6-1.5L62.4,119c0,0,2.8,4.5,21.3,9.3C87.8,129.4,91.1,131.4,96.9,132.8z"/>
					<path id="XMLID_17456_" class="st20" d="M96.9,132.8c0,0-1.3,8.9-8.7,14.6l-2-1.8c0,0,7.6-8.4,7.4-13.7
						C93.6,131.9,95.7,132.5,96.9,132.8z"/>
				</g>
			</g>
			<path id="XMLID_17467_" class="st19" d="M73.3,101.6c0.1,1.5,1.1,2.2,2.9,2.7l-2.7,4.1c0,0-2.4-2.2-2.9-3.8c0,0,0.2-1.6,0.8-2.9
				c0,0,0.3,0.1,0.8,0.1C72.6,101.8,73.3,101.6,73.3,101.6z"/>
			<path id="XMLID_17466_" class="st19" d="M84.6,100.1c0,0-0.1,5.1-8.4,4.2l3.2,5.2c0,0,5.5-1,7.9-4.9
				C87.3,104.7,86.6,99.3,84.6,100.1z"/>
			<g id="XMLID_17442_">
				<g id="XMLID_17449_">
					<path id="XMLID_17451_" class="st12" d="M96.6,118c0.8,0.2,1.6,0.5,2.4,0.9c2.6,1.4,4.2,1.6,8.8,5c5.3,3.9,13.6,0.8,1.8-9.9
						c-2.3-2.1-14.3-9.6-18.1-6.4C87.1,111.2,94,117.4,96.6,118z"/>
				</g>
				<g id="XMLID_17443_">
					<path id="XMLID_17448_" class="st22" d="M86.6,132.3l-0.2,1c-0.3,1.5-0.2,3,0.4,4.5l0.7,1.8l1.4-1.2c0,0,7.2-7.5-4.5-8.9
						C77.5,128.6,86.3,130,86.6,132.3z"/>
					<path id="XMLID_17447_" class="st4" d="M82.8,132.3c0,0-9.2,7.7-1.9,8.9c7.3,1.2,10.6-7,10.6-7s2.1-3.6-7.1-4.8
						C75.2,128.2,81.2,132.4,82.8,132.3z"/>
					<path id="XMLID_17445_" class="st12" d="M109.8,119.3c0.4,3.2-4.6,2.4-10,4.2c-9,3.1-15,6.8-12.2,13.4c0.7,1.6,2.3,2.2,4,2.2
						c2,0,5.4-0.9,9.9-3.9c10.6-7.1,11.3-8.1,13.5-10C119.3,121.4,109.3,115.4,109.8,119.3z"/>
				</g>
			</g>
			<g id="XMLID_17426_">
				<path id="XMLID_17441_" class="st4" d="M37.8,111.5c0,0-9.2-5.4-8,1.1s9,6.7,9,6.7s3.6,0.7,1.9-7.3S37.3,110.2,37.8,111.5z"/>
				<path id="XMLID_17434_" class="st12" d="M57.4,130.3c0.6-2.3-2.6-1.8-7.1-7.3c-5.4-6.5-10.1-10.4-14.8-6.1c-1.1,1-1.3,2.7-0.6,4
					c0.9,1.5,2.6,3.8,6.2,7.1c2.9,2.5,4.3,4,6.9,5.8C53.9,137.8,56.9,132.1,57.4,130.3z"/>
			</g>
		</g>
	</g>
</g>
</svg>
