<?xml version="1.0" encoding="utf-8"?>
<!-- Generator: Adobe Illustrator 19.0.0, SVG Export Plug-In . SVG Version: 6.00 Build 0)  -->
<svg version="1.1" id="Layer_1" xmlns="http://www.w3.org/2000/svg" xmlns:xlink="http://www.w3.org/1999/xlink" x="0px" y="0px"
	 viewBox="0 0 148.8 217.8" style="enable-background:new 0 0 148.8 217.8;" xml:space="preserve">
<style type="text/css">
	.st0{fill:#A38B33;}
	.st1{fill:#FFFFFF;}
	.st2{fill:#C6C98A;}
	.st3{fill:#F9D8C5;}
	.st4{fill:#E4AA94;}
	.st5{fill:#6B4031;}
	.st6{fill:#EB958E;}
	.st7{fill:#F8F8E7;}
	.st8{fill:#D79D8E;}
	.st9{fill:#DDDFCE;}
	.st10{fill:#C9C9B8;}
	.st11{fill:#DAD8C8;}
	.st12{fill:#CEC8C6;}
	.st13{fill:#B2B999;}
	.st14{fill:#CDD2BA;}
	.st15{fill:#7D3A42;}
	.st16{fill:#78686B;}
	.st17{fill:#A26D29;}
	.st18{fill:#4E403F;}
	.st19{fill:#F0D2C7;}
	.st20{fill:#FFFEFE;}
	.st21{fill:#C5E4E8;}
	.st22{fill:#D3B7A9;}
	.st23{fill:#CA989B;}
	.st24{fill:#036C6B;}
	.st25{fill:#FBF8F6;}
	.st26{fill:#8D7F81;}
</style>
<g id="XMLID_700_">
	<g id="XMLID_693_">
		<rect id="XMLID_702_" x="0" class="st0" width="148.8" height="217.8"/>
		<rect id="XMLID_701_" x="6.5" y="9.5" class="st1" width="135.8" height="198.8"/>
		<path id="XMLID_687_" class="st2" d="M30.7,74.1c0,0,1.5-32.8,5.2-37.5s5.6,1.6,12.7,4.7s17.9-23.4,29.9-10.9s12,10.9,18.7,12.5
			c6.7,1.6,38.9,14.1,38.9,34.4S96.9,213.1,78.2,197.5S16.5,185,25.9,144.4S14.7,121,30.7,74.1z"/>
	</g>
	<g id="XMLID_17929_">
		<g id="XMLID_18037_">
			<g id="XMLID_18105_">
				<polygon id="XMLID_18940_" class="st3" points="76.4,98.5 76.4,107 68.4,106.5 68.4,97 				"/>
				<path id="XMLID_18939_" class="st4" d="M76.4,98.5v3.5c0,0-1.9,0.1-2.5,0c-3.5-0.8-5.5-3.2-5.5-3.2V97L76.4,98.5z"/>
				<path id="XMLID_18938_" class="st3" d="M66.6,59c0,0-4-5.8,6.2-6s13.2-0.3,16.7,2.3c10,7.3,1.3,26.2,1.1,28c0,0-0.8,2.2-0.5,4.8
					s0.4,6.6-4.4,8.8c-6,2.6-8.1,3.2-12.5,2.8c-4.4-0.4-10.7-3.2-13-5.1c-4-3.4-19.8-17.3-1-26.3C62.6,66.7,66.6,59,66.6,59z"/>
				<path id="XMLID_18937_" class="st4" d="M90.2,89.7c0,0,3.2-4.4,1.1-8.7C91.3,81,88.9,86.4,90.2,89.7z"/>
				<g id="XMLID_18933_">
					<ellipse id="XMLID_18936_" class="st5" cx="67.5" cy="79" rx="2.3" ry="2.9"/>
					<circle id="XMLID_18935_" class="st1" cx="67.5" cy="78" r="0.9"/>
					<path id="XMLID_18934_" class="st5" d="M69.4,77.3c0,0,0.9,0.3,2.1,0c0,0,0.7,0.7-1.7,0.7L69.4,77.3z"/>
				</g>
				<g id="XMLID_18929_">
					<ellipse id="XMLID_18932_" class="st5" cx="85.7" cy="81.9" rx="2.2" ry="2.7"/>
					<circle id="XMLID_18931_" class="st1" cx="85.7" cy="81" r="0.9"/>
					<path id="XMLID_18930_" class="st5" d="M87.4,80.3c0,0,0.8,0.3,1.9,0c0,0,0.6,0.7-1.6,0.7L87.4,80.3z"/>
				</g>
				<path id="XMLID_18928_" class="st6" d="M65.2,85.5c0,0-1.1-0.7-1.7-1c-0.6-0.3,2.4,0,3.1,0.4c0.7,0.4,1.7,0.5,0.9,0.6
					C66.8,85.6,66,86,65.2,85.5z"/>
				<path id="XMLID_18927_" class="st6" d="M87.3,87.9c0,0-1-0.6-1.5-0.9c-0.5-0.2,1.7-0.4,2.3,0c0.6,0.3,2.1,0.8,1.4,0.9
					C88.7,88,88,88.4,87.3,87.9z"/>
				<g id="XMLID_18925_">
					<path id="XMLID_18926_" class="st6" d="M78.1,93.5c-1.3-0.1-2.5-0.3-3.7-0.6c-1.1-0.2-4.3-0.8-4.3-2.3c0-0.3-0.4-0.3-0.4,0
						c0,1.6,2.7,2.2,3.9,2.5c1.5,0.4,3.1,0.6,4.6,0.8C78.4,93.9,78.4,93.5,78.1,93.5L78.1,93.5z"/>
				</g>
				<path id="XMLID_18924_" class="st7" d="M71.6,67.8c0,0-2.6-2.4-6,0.7C65.6,68.5,69.4,67,71.6,67.8z"/>
				<path id="XMLID_18923_" class="st7" d="M86.5,71.3c0,0,3-0.3,4.5,1.9L86.5,71.3z"/>
				<g id="XMLID_18921_">
					<path id="XMLID_18922_" class="st8" d="M78.4,92.3c0.2,0.4,0.3,0.8,0.3,1.3c0,0.3,0.4,0.3,0.4,0c0-0.5-0.1-1-0.4-1.5
						C78.6,91.8,78.2,92,78.4,92.3L78.4,92.3z"/>
				</g>
				<g id="XMLID_18919_">
					<path id="XMLID_18920_" class="st8" d="M71.5,87.6c-1.7,2.1-3.1,4.4-4.2,6.8c-0.1,0.2,0.3,0.5,0.4,0.2c1.1-2.4,2.4-4.7,4.1-6.7
						C72,87.6,71.7,87.4,71.5,87.6L71.5,87.6z"/>
				</g>
				<g id="XMLID_18917_">
					<path id="XMLID_18918_" class="st8" d="M88.8,82.6c0.2,0,0.5-0.1,0.7-0.1c0.3-0.1,0.2-0.5-0.1-0.4c-0.2,0-0.5,0.1-0.7,0.1
						C88.4,82.3,88.5,82.7,88.8,82.6L88.8,82.6z"/>
				</g>
				<g id="XMLID_18910_">
					<path id="XMLID_18916_" class="st8" d="M88.2,83.7c0.5,0.2,0.9,0.5,1.4,0.7c0.2,0.1,0.4-0.2,0.2-0.4c-0.5-0.2-0.9-0.5-1.4-0.7
						C88.2,83.2,88,83.6,88.2,83.7L88.2,83.7z"/>
				</g>
				<g id="XMLID_18898_">
					<path id="XMLID_18904_" class="st8" d="M59.9,73.3c1.1,0.8,2.1,1.6,3.2,2.3c0.2,0.2,0.4-0.2,0.2-0.4c-1.1-0.8-2.1-1.6-3.2-2.3
						C59.8,72.8,59.6,73.1,59.9,73.3L59.9,73.3z"/>
				</g>
				<g id="XMLID_18108_">
					<path id="XMLID_18892_" class="st8" d="M60.8,77.2c0.5,0.2,0.9,0.4,1.4,0.6c0.2,0.1,0.5-0.3,0.2-0.4C62,77.2,61.5,77,61,76.8
						C60.8,76.7,60.6,77.1,60.8,77.2L60.8,77.2z"/>
				</g>
				<g id="XMLID_18106_">
					<path id="XMLID_18107_" class="st8" d="M59.3,79.9c0.3-0.4,1-0.4,1.4-0.5c0.5-0.1,1.1-0.2,1.7-0.3c0.3,0,0.3-0.4,0-0.4
						c-0.7,0.1-1.4,0.2-2.1,0.4c-0.5,0.1-1,0.2-1.3,0.6C58.7,79.9,59.1,80.1,59.3,79.9L59.3,79.9z"/>
				</g>
			</g>
			<g id="XMLID_18066_">
				<path id="XMLID_18104_" class="st7" d="M81,55.7c0,0-13.7,15.7-28.2,21.2c0,0-0.4,1,0.1,3.7c0.5,2.7-0.1,3.5-0.1,3.5
					s-2.8-7.3-3.5-7.3c-0.7,0-5.9,1.8-5.9,1.8s-6.1-6.9,0.7-18.5s19.2-15.3,26.5-12.6c0,0,5.6-5,19.7,7.6c0,0,5.7,6.2,5.7,14.5
					C96,69.5,98.4,78.1,81,55.7z"/>
				<path id="XMLID_18103_" class="st9" d="M44.9,78.3c0,0,0,2.4,0.7,3.6c1,1.6,2.2,2.2,2.9,2.7c1.1,0.9,2.3-0.5,3.4,0.6
					c1.1,1.1,1.4,2.3,1.4,2.3s0,10.5-12.8,6.9c-0.9-0.3-1.7-0.8-2.2-1.6c-1.7-2.5-4.7-8.3,0.1-13.6l3.7-1.9
					C42,77.4,44.6,76.9,44.9,78.3z"/>
				<g id="XMLID_18094_">
					<path id="XMLID_18095_" class="st10" d="M37.5,82c-1.6,2.7-0.5,6.1,1.9,7.9c3.1,2.3,7.1,2,10.7,1.6c0.2,0,0.1-0.3-0.1-0.3
						c-3.3,0.4-6.9,0.7-9.8-1.1c-2.6-1.6-4.1-5.1-2.4-7.9C37.9,82,37.6,81.9,37.5,82L37.5,82z"/>
				</g>
				<g id="XMLID_18092_">
					<path id="XMLID_18093_" class="st10" d="M38.6,80.1c-1,2.6-1.2,5.4-0.6,8c0.5,2.2,1.5,4.8,3.7,5.9c2.2,1.1,4.7,0.3,6.6-0.9
						c2.1-1.4,3.8-3.4,4.8-5.7c0.1-0.2-0.2-0.3-0.3-0.1c-1,2.2-2.6,4.2-4.7,5.5c-1.9,1.2-4.5,2-6.6,0.8c-2.1-1.2-3-3.8-3.4-6.1
						c-0.4-2.5-0.2-5,0.7-7.3C39,80,38.7,79.9,38.6,80.1L38.6,80.1z"/>
				</g>
				<g id="XMLID_18090_">
					<path id="XMLID_18091_" class="st10" d="M39.7,85c0.3,1.9,1,4.2,3.3,4.1c2.2-0.1,3.4-2.2,4.3-4c0.1-0.2-0.2-0.4-0.3-0.2
						c-0.8,1.5-1.7,3.3-3.5,3.7C41,89.3,40.3,86.9,40,85C39.9,84.8,39.6,84.8,39.7,85L39.7,85z"/>
				</g>
				<g id="XMLID_18088_">
					<path id="XMLID_18089_" class="st10" d="M38.7,81.6c0.3,1.8,0.8,3.5,2.7,4c1.6,0.5,3.3-0.2,4.2-1.5c0.1-0.2-0.1-0.3-0.3-0.2
						c-0.9,1.3-2.6,1.9-4.1,1.3c-1.6-0.6-2-2.2-2.2-3.7C39,81.3,38.7,81.4,38.7,81.6L38.7,81.6z"/>
				</g>
				<g id="XMLID_18086_">
					<path id="XMLID_18087_" class="st11" d="M71.7,48.2c3.7,0.5,7.6,1.9,9.5,5.4c0.1,0.2,0.4,0,0.3-0.2c-1.9-3.6-5.9-5.1-9.8-5.6
						C71.5,47.9,71.5,48.2,71.7,48.2L71.7,48.2z"/>
				</g>
				<g id="XMLID_18084_">
					<path id="XMLID_18085_" class="st11" d="M78.3,54.5C74.7,59.3,71,64.3,66,67.8c-4.9,3.5-10.6,5.5-16.3,7
						c-0.2,0.1-0.1,0.4,0.1,0.3c5.8-1.6,11.7-3.7,16.6-7.2c4.9-3.5,8.6-8.5,12.1-13.3C78.7,54.5,78.4,54.3,78.3,54.5L78.3,54.5z"/>
				</g>
				<g id="XMLID_18082_">
					<path id="XMLID_18083_" class="st11" d="M73,49.7c-1,6.9-5.1,12.9-10.3,17.4c-2.7,2.3-5.7,4.3-8.7,6.2c-1.6,1-3.2,2.1-4.9,2.7
						c-2.1,0.7-4.4,0.9-6.5,1.4c-0.2,0-0.1,0.4,0.1,0.3c2.1-0.5,4.2-0.7,6.2-1.3c1.7-0.5,3.2-1.5,4.6-2.4
						c5.9-3.6,11.6-7.6,15.5-13.4c2.2-3.2,3.7-6.9,4.2-10.7C73.4,49.6,73,49.5,73,49.7L73,49.7z"/>
				</g>
				<g id="XMLID_18080_">
					<path id="XMLID_18081_" class="st11" d="M78.3,52.9c-3.3,5.1-8.2,9-13.1,12.3c-2.5,1.7-5.1,3.3-7.9,4.5c-2.6,1.2-5.3,2-8,2.9
						c-2.8,0.8-5.3,0.7-8.1,0.2c-0.2,0-0.3,0.3-0.1,0.3c2.3,0.5,4.7,0.8,7,0.2c1.2-0.3,2.4-0.7,3.5-1.1c1.5-0.5,3-1,4.4-1.6
						c5.7-2.3,10.9-5.9,15.6-9.9c2.6-2.2,5.1-4.8,6.9-7.7C78.7,52.9,78.4,52.7,78.3,52.9L78.3,52.9z"/>
				</g>
				<g id="XMLID_18078_">
					<path id="XMLID_18079_" class="st11" d="M81.5,55.8c1.6,0.6,2.8,2.2,3.9,3.4c1.1,1.2,2.2,2.5,3.3,3.8c1.9,2.2,4,3.9,6.7,5.1
						c0.2,0.1,0.4-0.2,0.2-0.3c-2.9-1.3-5.1-3.3-7.2-5.7c-1.1-1.3-2.1-2.5-3.3-3.8c-1-1.1-2-2.3-3.5-2.8
						C81.4,55.4,81.3,55.7,81.5,55.8L81.5,55.8z"/>
				</g>
				<g id="XMLID_18076_">
					<path id="XMLID_18077_" class="st11" d="M80.4,52.2c2.7-0.5,5,1.2,6.8,3c1.3,1.3,2.7,3,4.8,3.1c0.2,0,0.2-0.3,0-0.3
						c-2.4,0-4.1-2.7-5.7-4.1c-1.6-1.4-3.8-2.3-5.9-1.9C80.1,51.9,80.2,52.2,80.4,52.2L80.4,52.2z"/>
				</g>
				<g id="XMLID_18074_">
					<path id="XMLID_18075_" class="st11" d="M81.3,54.1c2.2,0.1,3.6,1.8,5,3.3c1,1.1,2.1,2,3.1,3.1c1,1,1.9,2.1,3,3.1
						c0.8,0.7,1.6,1.5,2.7,1.9c0.2,0.1,0.3-0.3,0.1-0.3c-1.3-0.4-2.3-1.5-3.2-2.4c-1-1-1.9-2.1-2.9-3.1c-0.4-0.4-0.9-0.8-1.3-1.3
						c-0.7-0.7-1.3-1.5-2-2.2c-1.2-1.2-2.5-2.2-4.3-2.3C81.1,53.8,81.1,54.1,81.3,54.1L81.3,54.1z"/>
				</g>
				<g id="XMLID_18072_">
					<path id="XMLID_18073_" class="st11" d="M78.3,54.3c-5,4.1-10.7,7.4-16.6,9.8c-5.1,2.1-10.4,3.8-15.8,5
						c-1.6,0.4-3.3,0.6-4.9,0.8c-0.2,0-0.2,0.4,0,0.3c3.6-0.4,7.1-1.2,10.7-2.3c6.3-1.9,12.4-4,18.1-7.2c3.1-1.8,6.1-3.8,8.9-6.1
						C78.7,54.4,78.5,54.1,78.3,54.3L78.3,54.3z"/>
				</g>
				<path id="XMLID_18071_" class="st3" d="M51.3,83.9c0,0-0.6-3-0.7-6.3c-0.1-1.9-2.5-2.3-3.5-2.4c-0.8-0.1-1.6,0.4-1.9,1.2
					c-0.4,1-0.6,2.6,0,5.2c0.1,0.2,0.2,0.5,0.3,0.7c0.7,0.8,2.6,2.9,4.4,3.1C53.4,85.8,51.3,83.9,51.3,83.9z"/>
				<g id="XMLID_18069_">
					<path id="XMLID_18070_" class="st8" d="M47,77.3c1.4,0.1,2.7,1.7,3.1,3c0.1,0.3,0.5,0.1,0.4-0.1c-0.4-1.5-1.9-3.2-3.5-3.3
						C46.7,76.9,46.7,77.3,47,77.3L47,77.3z"/>
				</g>
				<g id="XMLID_18067_">
					<path id="XMLID_18068_" class="st12" d="M55.5,60c-1.2,0.8-2.1,1.9-3,3c0.2,0.2,0.4,0.3,0.7,0.5c0.4-1,1-2,1.3-3.1
						c0.1-0.5,0.2-0.6-0.1-1c-0.1-0.1-0.2-0.2-0.4-0.2c-0.7,0-1,0.6-1.4,1.1c-0.7,0.8-1.6,1-2.4,1.7c0.2,0.1,0.5,0.1,0.7,0.2
						c-0.3-1.3,0.7-2.6,0.8-3.9c0-0.3-0.4-0.5-0.6-0.4c-0.8,0.5-1.9,1.6-2.8,1.8c0.2,0.1,0.3,0.2,0.5,0.3C48.4,59,48.9,57,49,55.9
						c0-0.5-0.8-0.5-0.8,0c-0.1,1.3-0.6,3.2-0.3,4.5c0.1,0.2,0.3,0.3,0.5,0.3c1-0.2,2.1-1.3,3-1.9c-0.2-0.1-0.4-0.2-0.6-0.4
						c0,1.5-1,2.6-0.7,4.1c0.1,0.3,0.5,0.4,0.7,0.2c0.4-0.4,1-0.4,1.5-0.8c0.4-0.3,0.6-0.6,0.9-0.9c0.5-0.6,0.6-0.8,0.1,0.1
						c-0.3,0.7-0.6,1.4-0.9,2.1c-0.2,0.4,0.3,0.9,0.7,0.5c0.8-1.1,1.7-2.1,2.8-2.9C56.3,60.4,55.9,59.7,55.5,60L55.5,60z"/>
				</g>
			</g>
			<g id="XMLID_18040_">
				<path id="XMLID_18065_" class="st13" d="M41.4,63.6L33,71.3c0,0-3.4-2-3.2,1s2.9,3.8,4.1,2.6c1.2-1.2,1.1-1.6,1.1-1.6
					s0.5,3.2,3.3,1.5c2.7-1.6,2.5-2.5,2.5-2.5s1.5,4,6.5,1.2c0,0,1.4-1.9,0.5-3.3c0,0,4.9,4.7,9.1,1.7c4.1-3,3.3-6.5,3.3-6.5
					s3.6,4,7.2,0.6c3.6-3.4,2.3-6.6,2.3-6.6s3.5,5,6.6,0c0,0,2.5,3.4,5.1,0.9c0,0,1.2-0.7,1.5-2.1c0,0,2.2,6.9,6.5,3.6l1.5-1.8
					c0,0-1.5,3.8,1.2,4.8s4-1.6,4-1.6s4.4,7.2,6.9,2.1c2.5-5.1-1-5.7-1-5.7l-3.4,0.5L89.8,55C89.8,55,59.9,48.3,41.4,63.6z"/>
				<path id="XMLID_18064_" class="st14" d="M92.1,56.3c0,0-11.7-5.7-28.7,0.1c-3.9,1.3-16.1,10.2-21,7.3c0,0-14.7-8,0.1-21.6
					s19.6-5.2,22.7-4.1c3,1.1,5.3,1.9,11.4,0.7s6.9,0.2,10,4.1s11.1,2.5,11.1,8.1S92.1,56.3,92.1,56.3z"/>
				<g id="XMLID_18062_">
					<path id="XMLID_18063_" class="st14" d="M38.7,69.5c2,0.9,4.1-0.6,3.7-2.8c0-0.2-0.3-0.2-0.4-0.1c-1.2,1.9,1.1,3.5,2.9,2.7
						c1.1-0.5,1.7-1.6,1.8-2.7c0.1-0.5,0.3-2.1-0.6-2c-0.8,0.1-0.5,1.4-0.3,1.9c0.4,0.9,1.3,1.4,2.3,1.3c1.1-0.1,2-0.8,2.4-1.8
						c0.2-0.4,0.6-2-0.3-2c-0.9,0-0.6,1.4-0.2,1.8c0.9,1.2,2.6,1,3.9,0.7c0.3-0.1,0.2-0.5-0.1-0.4c-0.8,0.2-1.6,0.3-2.4,0.1
						c-0.3-0.1-1.1-0.5-1.2-0.9c0-0.2,0.1-0.3,0.1-0.5c0,0.2,0,0.4-0.1,0.5c-0.4,1.7-3,2.9-4,0.9c-0.1-0.1-0.3-1.3,0.2-0.5
						c0.1,0.2-0.1,0.8-0.1,1c-0.1,0.7-0.5,1.3-1,1.8c-0.6,0.5-1.4,0.7-2.1,0.4c-0.9-0.4-1.2-1.4-0.7-2.2c-0.1,0-0.3,0-0.4-0.1
						c0.3,1.8-1.4,3.1-3.1,2.3C38.7,69,38.5,69.4,38.7,69.5L38.7,69.5z"/>
				</g>
				<g id="XMLID_18060_">
					<path id="XMLID_18061_" class="st14" d="M56.4,63.7c1.6,1.3,3.1-0.8,3.5-2.2c0.1-0.4,0.5-1.6-0.1-1.9c-0.5-0.2-0.7,0.4-0.7,0.8
						c0,0.6,0.5,1.2,1.1,1.4c0.8,0.3,1.6-0.2,2.2-0.8c0.5-0.5,2.5-3.9,1-3.9c-0.1,0-0.2,0-0.2,0.1c-1,2.1,1.7,3.1,3.2,2.2
						c0.7-0.4,1.7-1.4,1.6-2.3c-0.1-0.7-0.8-1.2-1.4-0.8c-0.6,0.5-0.4,1.5,0,2c0.5,0.8,1.6,1.3,2.6,1.4c2.2,0.1,4.8-2.2,5.1-4.5
						c0-0.5-0.2-0.9-0.7-0.6c-0.6,0.4-0.5,1.5-0.2,2.1c1,1.6,3.8,0.9,4.1-0.9c0.1-0.6-0.5-1.2-1-0.7c-0.6,0.6-0.4,1.7,0,2.2
						c1.5,2,4.4,0.2,5.4-1.3c0.4-0.6,0.4-1.6-0.6-1.3c-0.9,0.3-1,1.5-0.6,2.2c0.5,1,1.6,1.3,2.7,1.1c1.3-0.3,2.4-1.4,3-2.6
						c0.1-0.1,0-0.3-0.1-0.3c-0.8-0.3-1.7,0.3-1.8,1.2c-0.2,1.1,0.7,2.1,1.6,2.5c1,0.5,2.2,0.3,3-0.3c0.6-0.4,1.4-1.4,0.9-2.1
						c-0.1-0.1-0.2-0.1-0.3,0c-0.8,0.8-0.5,1.9,0.4,2.4c1,0.5,2.2,0.1,2.8-0.9c-0.1,0-0.3-0.1-0.4-0.1c-0.1,0.7,0,1.3,0.3,2
						c0.1,0.2,0.5,0,0.4-0.2c-0.3-0.6-0.3-1.1-0.3-1.8c0-0.2-0.3-0.3-0.4-0.1c-0.6,0.9-1.9,1.2-2.7,0.3c-0.2-0.2-0.4-0.4-0.3-0.7
						c-0.1,0.1-0.2,0.3-0.3,0.4c-0.3,0.3-0.7,0.6-1.1,0.8c-0.7,0.2-1.5,0.1-2.1-0.2c-0.4-0.2-0.8-0.6-1-1c-0.4-0.8-0.1-2.2,1.1-1.8
						c0-0.1-0.1-0.2-0.1-0.3c-0.3,0.7-0.8,1.3-1.5,1.8c-0.9,0.7-2.5,1.1-3.3,0c-0.2-0.3-0.5-1-0.2-1.3c0.7-0.2,0.9-0.1,0.5,0.2
						c-0.1,0.2-0.3,0.3-0.4,0.5c-0.6,0.6-1.3,1.1-2.1,1.3c-1,0.2-3-0.4-2.4-1.8c0-0.5,0.1-0.4,0.3,0.1c-0.1,0.2-0.3,0.4-0.5,0.6
						c-0.4,0.3-0.9,0.6-1.4,0.6c-0.5,0-1-0.3-1.3-0.7c-0.1-0.2-0.2-0.4-0.2-0.6c-0.1-0.3,0-0.6,0.2-0.9c0.4,0.6-0.7,2-1,2.4
						c-1.1,1.3-3,2.4-4.7,1.6c-0.4-0.2-0.8-0.5-1-0.9c-0.2-0.3-0.3-0.5-0.3-0.9c0.2,0.2,0.5,0.4,0.7,0.5c0,0.2-0.6,0.7-0.7,0.9
						c-0.4,0.4-0.9,0.6-1.5,0.7c-0.4,0.1-0.7,0-1-0.2c-0.3-0.2-0.5-0.4-0.6-0.7c-0.1-0.1-0.1-0.2-0.1-0.3c0,0.2-0.1,0.5-0.2,0.7
						c-0.3,0.8-0.8,1.8-1.6,2.3c-0.5,0.3-1.4,0.6-1.9,0c-0.1-0.9-0.2-0.9-0.2,0c0,0.1-0.1,0.2-0.1,0.4c-0.3,1-1.3,3.2-2.8,2
						C56.5,63.3,56.2,63.6,56.4,63.7L56.4,63.7z"/>
				</g>
				<g id="XMLID_18058_">
					<path id="XMLID_18059_" class="st7" d="M43.8,59.1c-3.2-1-2.1-5.7-1.3-8c0.9-2.5,2.1-4.8,3.7-7c1.6-2.2,3.5-4.4,5.7-6
						c1.2-0.8,2.4-1.6,3.9-1.9c1.7-0.4,3.2,0.1,4.7,1c4.2,2.6,8.8,7.4,6.6,12.8c-1.1,2.7-4,3.8-6.7,4c-2.5,0.2-7.9-1-5.8-4.7
						c1.5-2.7,5.2-5.1,8.4-4.6c1.5,0.3,2.9,1.3,3.5,2.8c1,2.7-2.3,2.7-4.1,2.7c-0.3,0-0.3,0.4,0,0.4c1.3,0,3.4,0.1,4.3-1.1
						c0.7-0.9,0.2-2.3-0.3-3.1c-1.7-2.6-5.2-2.6-7.7-1.3c-1.5,0.8-2.8,1.9-3.8,3.2c-0.8,1-1.4,2.2-0.8,3.4c1.2,2.9,5.4,2.9,8,2.4
						c3-0.6,5.5-2.5,6.1-5.6c0.6-3-0.6-5.9-2.6-8.2c-1.1-1.2-2.3-2.2-3.7-3.1c-1.4-0.9-3-1.8-4.7-1.8c-3.4,0.1-6.4,2.9-8.5,5.3
						c-2.6,2.9-4.7,6.2-6.1,9.9c-0.9,2.5-2.1,7.5,1.5,8.6C43.9,59.6,44,59.2,43.8,59.1L43.8,59.1z"/>
				</g>
				<g id="XMLID_18056_">
					<path id="XMLID_18057_" class="st14" d="M36,51.7c-0.6,2.8-0.8,6.7,1.2,9.1c2.1,2.5,5.6,2.5,8.6,2.4c0.3,0,0.3-0.4,0-0.4
						c-2.8,0.1-6,0.1-8.1-2.1c-2.1-2.2-1.9-6.2-1.3-9C36.5,51.6,36.1,51.5,36,51.7L36,51.7z"/>
				</g>
				<g id="XMLID_18054_">
					<path id="XMLID_18055_" class="st14" d="M97.1,50.5c0.3,1.3,0.6,2.5,0,3.7c-0.3,0.5-0.7,1.7-1.2,2c-0.5,0.3-1.6,0-2.1,0
						c-0.6-0.1-1.2-0.2-1.8-0.1c-0.3,0.1-0.2,0.5,0.1,0.4c1.2-0.3,3.3,0.9,4.3-0.2c0.6-0.6,1-1.5,1.3-2.3c0.5-1.2,0.2-2.5-0.1-3.7
						C97.5,50.1,97.1,50.2,97.1,50.5L97.1,50.5z"/>
				</g>
			</g>
			<g id="XMLID_18052_">
				<path id="XMLID_18053_" class="st8" d="M75.4,67.8c2.8,0.4,5.6,0.7,8.4,0.9c0.3,0,0.3-0.4,0-0.4c-2.8-0.1-5.5-0.4-8.2-0.9
					C75.2,67.4,75.1,67.8,75.4,67.8L75.4,67.8z"/>
			</g>
			<g id="XMLID_18050_">
				<path id="XMLID_18051_" class="st8" d="M79.8,65.6c0.8,0.1,1.6,0.1,2.4,0.2c0.3,0,0.3-0.4,0-0.4c-0.8-0.1-1.6-0.1-2.4-0.2
					C79.5,65.1,79.5,65.6,79.8,65.6L79.8,65.6z"/>
			</g>
			<path id="XMLID_18049_" class="st15" d="M67.8,102c0,0-7.8-2.2-15.9,10.3c-9,13.8,12.2,15.5,13.3,15.5c1.1,0,35.6,0.6,31.8-13
				s-20.4-11.5-20.4-11.5S75.4,109.3,67.8,102z"/>
		</g>
		<path id="XMLID_19066_" class="st16" d="M88,180.2c0,0-5.7-6.7-8.8,0c0,0-1.3,3.6-0.3,4.5c1,0.9,5.9,4.9,10.3,3.5
			C93.7,186.7,88,180.2,88,180.2z"/>
		<path id="XMLID_19065_" class="st16" d="M64.8,179.2c0,0,5.7-6.7,8.8,0c0,0,1.3,3.6,0.3,4.5c-1,0.9-5.9,4.9-10.3,3.5
			C59.2,185.7,64.8,179.2,64.8,179.2z"/>
		<path id="XMLID_19064_" class="st15" d="M93.7,124.3c0,0-2.9-28.1-31.4-15.2c0,0,0.4,8-1.4,11.7C60.9,120.8,71.4,128.7,93.7,124.3
			z"/>
		<path id="XMLID_19063_" class="st17" d="M93.7,124.3c0,0-30.9,6.2-31.4-15.2c0,0,0.4,8-1.4,11.7C60.9,120.8,71.4,128.7,93.7,124.3
			z"/>
		<path id="XMLID_19062_" class="st18" d="M89.6,182.4c0,0-6.1-9.8-10.3-2.2c0,0-1.4,3.6-0.3,4.5c6.4,5.3,2.4,0.6,6.4-1.9
			C88.4,181,89.6,182.4,89.6,182.4z"/>
		<path id="XMLID_19061_" class="st18" d="M62.9,182c0,0,5.7-10.3,11-1.5c0,0,1,2.4-0.1,3.3c-4.7,4-2.8,1.1-5.6-1.3
			C65.5,180.2,62.9,182,62.9,182z"/>
		<path id="XMLID_19058_" class="st15" d="M93.5,124.7c0,0,8.3,8.5,7.4,29.1c0,0-2.2,13.3-2.2,21.4c0,2.2-1.5,4.2-3.6,4.8
			c-7.7,2.2-35.7,2.8-43.8-3.3c-4.6-3.4-1.8-20.5,2.9-41.6c0,0,4.8-9,5.7-11.6c0,0,10.2,0.6,21,0.2
			C84.9,123.5,90.4,126.9,93.5,124.7z"/>
		<g id="XMLID_19067_">
			<g id="XMLID_19071_">
				<path id="XMLID_19075_" class="st19" d="M103.8,151.4c0,0,7.4,8.4,8.3,1.6c0.9-6.8-6.8-9.8-6.8-9.8s-3.4-1.9-4.4,6.7
					C100.1,158.6,103.9,152.9,103.8,151.4z"/>
				<path id="XMLID_19073_" class="st20" d="M90.4,126.4c1.4,2.1,1.7,2.3,4.4,9.3c3.2,8.3,6.7,13.8,12.8,11.1
					c1.4-0.6,2.2-2.2,1.9-3.8c-0.3-1.8-1.3-4.7-3.9-9.2c-2-3.5-3-5.5-5-8.1C96.2,119.6,90,125.7,90.4,126.4z"/>
			</g>
		</g>
		<path id="XMLID_19051_" class="st21" d="M82.3,106.9c0,0,6.3,1,3.2,6c-1.4,2.2-6.5,2.5-7.5,1.2c0,0-7.1,4-11.2-0.8
			c-4.2-4.9,0.2-6.7,0.5-6.3c0,0,4.7,5.7,9.2,4.7C76.5,111.8,82.4,112.3,82.3,106.9z"/>
		<g id="XMLID_19023_">
			<g id="XMLID_19024_">
				<path id="XMLID_19029_" class="st22" d="M48.6,150.7l-1,0.3c-1.5,0.5-3.2,0.5-4.7,0l-2-0.6l1.2-1.6c0,0,7.3-8.3,9.8,3.9
					C53.3,160,51,150.9,48.6,150.7z"/>
				<path id="XMLID_19028_" class="st19" d="M49.1,154.8c0,0-7.2,10.5-9.2,2.9c-2-7.6,6.3-11.9,6.3-11.9s3.6-2.6,5.8,7
					C54.3,162.4,49.2,156.4,49.1,154.8z"/>
				<path id="XMLID_19026_" class="st20" d="M60.1,125.1c-1.5,3.1-2.1,5.1-3.5,10.9c-2.4,9.8-5.7,16.4-12.9,14.1
					c-1.7-0.5-2.6-2.2-2.9-4c-0.3-2.4,0-5.7,3.4-10.8c7.4-11.3,7-13,8.8-15.5C56.5,115,60.5,124.2,60.1,125.1z"/>
			</g>
		</g>
		<path id="XMLID_17922_" class="st23" d="M80.3,109c-0.4,1-2.2,1-5.8-0.2c-3.4-1.1-10-5.4-10-5.4l-0.1,0c0,0-6.7-2.4-12,5.7
			c-3.6,5.4-11.1,17.4-16,18.6c0,0-10.6,1.5,3.3,6.8c0,0-3,15,19.4,8.9c0,0,9.9,11.3,22,4.2c0.1-0.1-3.5-4.9-3.9-11
			c-0.5-8,2.3-17.8,2.4-18"/>
		<path id="XMLID_766_" class="st23" d="M78.6,109.3c0.4,0.9,1.8,0.8,4.4-0.7c2.4-1.4,0.6-4.5,0.6-4.5l1.4-0.3c0,0,6.9,0,17,11.7
			c3.9,4.5,24.6,24.9,1.9,20.6c0,0-11.9,16.1-21.8,10.3c-0.1-0.1,2.1-5,1.8-10.9c-0.5-7.8-3.6-17-3.7-17.1"/>
		<path id="XMLID_19012_" class="st24" d="M62,102.5c0,0-0.8,3.6,7.2,6.5s6.9,3.6,9.8,3.8c5.9,0.4,6-9.1,6-9.1l-4.2-0.6
			c0,0,0,5.9-2.1,5.9c-2,0-6-1.8-9.9-3.7C66.2,104.1,63.2,102.1,62,102.5z"/>
		<g id="XMLID_19007_">
			<path id="XMLID_19011_" class="st24" d="M79.7,112c0,0,7.6,3,4.7,8.6c-3,5.5-5.8-4.4-5.2-8.1c0,0,3.6,15,4.6,6.9
				C84.5,114,79.7,112,79.7,112z"/>
			<path id="XMLID_19010_" class="st24" d="M79.5,112c0,0-3.9,2.4-2.4,6.9c1.3,3.7,1.9-2,2.1-4.8c0-0.6,0-1.2,0-1.4
				c0,0-1.8,10.7-1.8,5.2C77.4,113.5,79.5,112,79.5,112z"/>
			<path id="XMLID_19009_" class="st24" d="M79.3,114.2c0,0-0.7,4.1,0.2,10.4c0.9,6.3,1,8.8,1,8.8s-1.1-1-2.4,0c0,0,0.9-2.4,0.7-5.4
				C78.6,122.1,78.3,115.4,79.3,114.2z"/>
			<path id="XMLID_19008_" class="st24" d="M78.9,114.4c0,0,0.9,3.5,0.7,8.3s-0.1,6.6-0.1,6.6s1-0.9,2.4-0.3c0,0-1.1-1.6-1.3-3.9
				C80.3,120.7,80,115.1,78.9,114.4z"/>
		</g>
		<g id="XMLID_18038_">
			<path id="XMLID_18999_" class="st25" d="M80.8,147.4c0-0.1,0-0.1,0-0.1l-4.7,1.8l-5.5,0.4c0.1-0.2,0.2-0.4,0.2-0.4l-5.5-1.1
				c0,0,0,0,0,0l-4.6-3.1l-2.4-2.5c0,0,0,0.1-0.1,0.3l-5.4,1.4c0,0,0,0,0,0l-5.5,0.4c0.1-0.1,0.2-0.2,0.2-0.2l-4.9-1.8l-3.1-4.4
				c0,0,0,0-0.1,0.1l-0.2-4.1c0,0-0.1,0-0.3,0c0.1,0,0.1-0.1,0.1-0.1l-4-2.5c0,0-0.1,0.1-0.1,0.2l-2.8-2.9c0,0-1.1,2.5,0,3.4
				c0.7,0.6,1.9,0.4,2.5,0.1c-0.2,0.7-0.4,1.7,0.3,2.2c0.5,0.4,1.4,0.3,2.2,0.1c-0.3,0.2-0.6,0.5-0.6,1c-0.1,1.1,1.9,2.3,2.6,2.7
				c-0.6,0.6-1.7,1.9-1.1,3.1c0.6,1.1,2.9,1.2,4,1.2c-0.1,0.7-0.3,2.6,1,3.2c1.3,0.6,3.4-0.7,4.1-1.3c0.1,0.3,0.8,2.7,2.4,2.7
				c1.5,0.1,2.9-2.4,3.2-3c0.3,0.6,1.4,2.3,2.8,2.1c1.1-0.2,1.9-1.7,2.3-2.7c-0.1,0.6,0,1.2,0.4,1.5c0.7,0.6,1.8,0.1,2.2-0.2
				c-0.1,0.8-0.2,3.4,1.1,4.1c1.3,0.7,3-0.7,3.5-1.1c0.2,0.6,1.2,3.3,2.8,3.4c1.3,0.1,2.2-1.3,2.6-2c0.3,0.4,2.1,2.9,3.7,2.6
				c1.2-0.2,1.7-1.6,1.8-2.4c0.9,0.6,2.7,1.6,3.9,1C81.2,150.1,81,148.2,80.8,147.4C81.3,147.7,80.8,147.4,80.8,147.4z"/>
		</g>
		<g id="XMLID_692_">
			<path id="XMLID_765_" class="st25" d="M115,136.1c0,0.4-0.3,3.5-1.9,3.8c-1.5,0.3-3.3-2.6-3.7-3.4c-0.2,0.8-1,3.1-2.5,3
				c-1.2-0.1-2.2-1.9-2.7-3.1c0.2,0.7,0.2,1.5-0.1,2c-0.6,0.8-1.7,0.3-2.2,0.1c0.2,1,0.8,4.3-0.4,5.3c-1.2,1.1-3.1-0.4-3.6-0.9
				c-0.1,0.8-0.6,4.4-2.2,4.7c-1.3,0.3-2.4-1.3-2.9-2.2c-0.2,0.6-1.6,4-3.2,3.8c-1.2-0.1-1.9-1.8-2.3-2.8c-0.8,0.9-2.4,2.4-3.6,1.8
				c-1.4-0.7-1.5-3.2-1.5-4c-0.5,0.3,0-0.1,0-0.1c0-0.1,0-0.2,0-0.2l5,1.7l5.6-0.2c-0.1-0.3-0.2-0.4-0.2-0.4l5.2-2.1c0,0,0,0,0,0
				l4-4.5l1.9-3.4c0,0,0.1,0.2,0.2,0.4l5.6,1.1c0,0,0,0,0,0.1l4.9-2.2c-0.2-0.1-0.3-1.1-0.3-1.1"/>
		</g>
		<g id="XMLID_17673_">
			<g id="XMLID_17672_">
				<path id="XMLID_732_" class="st26" d="M86.1,71.8c-8.5,2.7-9.2,18.5,1.5,17c4-0.6,6.3-6.2,6.3-9.8
					C93.9,74.6,90.6,71.2,86.1,71.8c-1.3,0.2-0.7,2.1,0.5,1.9c8.3-1.2,5.9,14.9-1.4,12.9c-6.5-1.8-3.7-11.3,1.4-12.9
					C87.8,73.4,87.3,71.4,86.1,71.8L86.1,71.8z"/>
			</g>
			<g id="XMLID_17671_">
				<path id="XMLID_731_" class="st26" d="M67.7,68c-5,1.5-8.5,6.4-8.2,11.7c0.3,5.4,5,9.2,10.4,8.2c5-0.9,8-8,7.5-12.6
					C76.9,70.4,72.6,67.2,67.7,68c-1.3,0.2-0.7,2.1,0.5,1.9c10.4-1.7,8.6,16.7-0.6,16c-9.8-0.7-6.5-13.8,0.6-16
					C69.5,69.6,69,67.7,67.7,68L67.7,68z"/>
			</g>
			<g id="XMLID_17670_">
				<path id="XMLID_730_" class="st26" d="M76,81.1c1.1,0,1.5-0.9,2.2-1.5c0.3-0.3,0.6-0.6,0.9-0.3c0.3,0.3,0.3,1.1,0.4,1.5
					c0.2,1.3,2.2,0.7,1.9-0.5c-0.3-1.3-0.6-2.8-2.2-3c-0.6-0.1-1.3,0.1-1.8,0.4c-0.3,0.2-0.6,0.5-0.8,0.8c-0.1,0.1-0.5,0.7-0.6,0.7
					C74.7,79.1,74.7,81.1,76,81.1L76,81.1z"/>
			</g>
			<g id="XMLID_17669_">
				<path id="XMLID_729_" class="st26" d="M48.1,74.6c0.6-1.7,7.6,1.5,8.6,1.9c1.2,0.5,1.7-1.5,0.5-1.9c-2.4-0.9-5-2.2-7.6-2.5
					c-1.7-0.2-3,0.5-3.5,2.1C45.7,75.3,47.7,75.8,48.1,74.6L48.1,74.6z"/>
			</g>
			<g id="XMLID_17668_">
				<path id="XMLID_728_" class="st26" d="M57,74.5c-0.1,0.7-0.2,1.4-0.2,2.2c0,0.4,0.6,0.7,0.9,0.4c0.5-0.6,0.6-1.7,1.3-2.1
					c-0.2-0.2-0.5-0.4-0.7-0.6c-0.3,1-0.5,1.9-0.6,2.9c-0.1,0.5,0.4,0.8,0.8,0.5c0.9-0.8,0.9-2,1.7-2.8c-0.3-0.2-0.6-0.3-0.8-0.5
					c-0.1,0.9-0.3,1.7-0.5,2.5c-0.1,0.5,0.5,0.8,0.8,0.5c0.9-0.8,0.9-1.9,1.6-2.8c-0.2,0-0.5,0-0.7,0c0,0,0-0.1,0-0.1
					c0,0.1-0.1,0.3-0.1,0.4c-0.1,0.2-0.1,0.5-0.2,0.7c-0.1,0.5-0.2,0.9-0.4,1.4c-0.1,0.5,0.6,0.9,0.9,0.4c0.4-0.7,0.8-1.5,1.2-2.2
					c-0.3-0.1-0.6-0.3-0.9-0.4c-0.1,0.9-0.4,1.7-0.8,2.5c-0.3,0.6,0.6,1.1,0.9,0.5c0.4-0.9,0.7-1.8,0.9-2.8c0.1-0.5-0.6-0.9-0.9-0.4
					c-0.4,0.7-0.8,1.5-1.2,2.2c0.3,0.1,0.6,0.3,0.9,0.4c0.2-0.8,0.4-1.5,0.6-2.3c0.1-0.4,0.2-0.9-0.2-1.2c-0.2-0.2-0.5-0.2-0.7,0
					c-0.7,0.8-0.8,2.1-1.6,2.8c0.3,0.2,0.6,0.3,0.8,0.5c0.2-0.8,0.4-1.7,0.5-2.5c0.1-0.4-0.5-0.9-0.8-0.5c-0.7,0.8-0.8,2.1-1.7,2.8
					c0.3,0.2,0.6,0.3,0.8,0.5c0.2-1,0.4-2,0.6-2.9c0.1-0.4-0.4-0.8-0.7-0.6c-0.9,0.5-0.9,1.6-1.5,2.3c0.3,0.1,0.6,0.2,0.9,0.4
					c0-0.6,0-1.3,0.1-1.9C58,74.1,57.1,73.8,57,74.5L57,74.5z"/>
			</g>
		</g>
	</g>
</g>
</svg>
