<?xml version="1.0" encoding="utf-8"?>
<!-- Generator: Adobe Illustrator 19.0.0, SVG Export Plug-In . SVG Version: 6.00 Build 0)  -->
<svg version="1.1" id="Layer_1" xmlns="http://www.w3.org/2000/svg" xmlns:xlink="http://www.w3.org/1999/xlink" x="0px" y="0px"
	 viewBox="0 0 148.8 217.8" style="enable-background:new 0 0 148.8 217.8;" xml:space="preserve">
<style type="text/css">
	.st0{fill:#A38B33;}
	.st1{fill:#FFFFFF;}
	.st2{fill:#C6C98A;}
	.st3{fill:#FBFDFD;}
	.st4{fill:#F7A191;}
</style>
<g id="XMLID_1827_">
	<g id="XMLID_1896_">
		<rect id="XMLID_1899_" x="0" class="st0" width="148.8" height="217.8"/>
		<rect id="XMLID_1898_" x="6.5" y="9.5" class="st1" width="135.8" height="198.8"/>
		<path id="XMLID_1897_" class="st2" d="M24.9,70c0,0,1.5-32.8,5.2-37.5s5.6,1.6,12.7,4.7s17.9-23.4,29.9-10.9s12,10.9,18.7,12.5
			c6.7,1.6,38.9,14.1,38.9,34.4S91,209,72.3,193.4S10.7,180.9,20,140.3S8.8,116.9,24.9,70z"/>
	</g>
	<g id="XMLID_1828_">
		<g id="XMLID_1877_">
			<g id="XMLID_1889_">
				<path id="XMLID_640_" class="st0" d="M97.8,153.4c-0.9-16,1.5-31.8,7-46.8c0.4-1.2-1.5-1.7-1.9-0.5c-5.5,15.2-7.9,31.2-7,47.3
					C95.9,154.7,97.9,154.7,97.8,153.4L97.8,153.4z"/>
			</g>
			<path id="XMLID_1888_" class="st0" d="M82.6,118.2c0,0,8.4-13.5,1.8-27.6c-0.3-0.5-0.9-0.6-1.1-0.2
				C81,94.3,72.7,109.7,82.6,118.2z"/>
			<path id="XMLID_1887_" class="st0" d="M101.5,97.8c0,0,10.2-16.4,2.2-33.5c-0.3-0.7-1.1-0.8-1.4-0.2
				C99.4,68.8,89.4,87.5,101.5,97.8z"/>
			<path id="XMLID_1886_" class="st0" d="M88.9,110.9c0,0,17.4,8.3,33.6-1.4c0.6-0.4,0.7-1.1,0.1-1.4
				C117.5,105.7,97.8,97.8,88.9,110.9z"/>
			<g id="XMLID_1879_">
				<path id="XMLID_639_" class="st0" d="M103.8,93c-12.9,10.3-23.1,25-26.5,41.3c-0.1,0.6,0.8,0.9,1,0.3
					c3.4-16.2,13.5-30.7,26.3-40.9C105.1,93.3,104.3,92.6,103.8,93L103.8,93z"/>
			</g>
			<path id="XMLID_1878_" class="st0" d="M138.3,77.7c0,0-15.4-6.4-34.1,15.6C104.2,93.3,116.8,104.7,138.3,77.7z"/>
		</g>
		<g id="XMLID_1829_">
			<g id="XMLID_1869_">
				<path id="XMLID_638_" class="st0" d="M64.9,110.8c-7.1,26.7-14.1,53.4-21.2,80.1c-0.5,1.9,2.4,2.7,2.9,0.8
					c7.1-26.7,14.1-53.4,21.2-80.1C68.3,109.8,65.4,109,64.9,110.8L64.9,110.8z"/>
			</g>
			<g id="XMLID_1866_">
				<path id="XMLID_1868_" class="st3" d="M86.2,90.6c0,0,3.7-6.3-4.8-9.4c-8.5-3.1-10,7.9-10,7.9S63.2,82,57.5,86
					c-5.7,3.9,0.3,17.9,1.6,17.5s1.4-0.4,1.4-0.4s-8.4,8.5-2.3,15.6c6.2,7.1,14-3.6,14-3.6s6.8,11.3,15.7,4.6s2.3-13.7,2.3-13.7
					s7.6-2.5,6.6-9.9C95.9,88.7,86.2,90.6,86.2,90.6z"/>
				
					<ellipse id="XMLID_1867_" transform="matrix(-0.2499 -0.9683 0.9683 -0.2499 -5.3231 199.544)" class="st4" cx="74.6" cy="101.8" rx="7.9" ry="8.4"/>
			</g>
			<g id="XMLID_1859_">
				<path id="XMLID_637_" class="st0" d="M47.1,132.2c-2.5,21.1-4.9,42.2-7.4,63.3c-0.2,1.9,2.8,1.9,3,0c2.5-21.1,4.9-42.2,7.4-63.3
					C50.3,130.3,47.3,130.3,47.1,132.2L47.1,132.2z"/>
			</g>
			<g id="XMLID_1852_">
				<path id="XMLID_636_" class="st0" d="M85.7,139.3c-11.4,17.9-22.7,35.9-34.1,53.8c-1,1.6,1.6,3.1,2.6,1.5
					c11.4-17.9,22.7-35.9,34.1-53.8C89.3,139.1,86.7,137.6,85.7,139.3L85.7,139.3z"/>
			</g>
			<g id="XMLID_1845_">
				<path id="XMLID_635_" class="st0" d="M71.7,126.7c-6.5,20.2-13,40.4-19.6,60.6c-0.6,1.8,2.3,2.6,2.9,0.8
					c6.5-20.2,13-40.4,19.6-60.6C75.2,125.6,72.3,124.9,71.7,126.7L71.7,126.7z"/>
			</g>
			<g id="XMLID_1836_">
				<path id="XMLID_1839_" class="st3" d="M52.2,105.7c0,0,1.1-7.2-8-6.9s-6.4,11.1-6.4,11.1s-10.2-3.6-14.1,2.2
					c-3.9,5.8,6.9,16.5,8.1,15.6s1.1-0.8,1.1-0.8s-4.7,11,3.7,15.3s11.7-8.6,11.7-8.6s10.5,7.9,16.3-1.6s-3-13.6-3-13.6
					s6.1-5.1,2.4-11.7C60.3,100.2,52.2,105.7,52.2,105.7z"/>
				
					<ellipse id="XMLID_1838_" transform="matrix(-0.5944 -0.8041 0.8041 -0.5944 -24.1288 228.5877)" class="st4" cx="45.6" cy="120.4" rx="7.9" ry="8.4"/>
			</g>
			<g id="XMLID_1833_">
				<path id="XMLID_1835_" class="st3" d="M99.3,121.2c0,0,0.9-5.7-6.3-5.5c-7.2,0.2-5,8.8-5,8.8s-8.1-2.9-11.2,1.8
					c-3.1,4.6,5.5,13.1,6.4,12.4c0.9-0.7,0.9-0.7,0.9-0.7s-3.7,8.7,3,12.1c6.7,3.4,9.3-6.9,9.3-6.9s8.4,6.3,12.9-1.2
					c4.6-7.6-2.4-10.8-2.4-10.8s4.9-4.1,1.9-9.3C105.8,116.9,99.3,121.2,99.3,121.2z"/>
				
					<ellipse id="XMLID_1834_" transform="matrix(-0.5944 -0.8041 0.8041 -0.5944 43.1575 287.6496)" class="st4" cx="94.1" cy="132.9" rx="6.3" ry="6.7"/>
			</g>
			<g id="XMLID_1830_">
				<path id="XMLID_1832_" class="st3" d="M77,118.4c0,0,0.6-4.3-4.7-4.1c-5.4,0.2-3.8,6.6-3.8,6.6s-6.1-2.1-8.3,1.3
					c-2.3,3.4,4.1,9.7,4.8,9.3s0.7-0.5,0.7-0.5s-2.8,6.5,2.2,9s6.9-5.1,6.9-5.1s6.2,4.7,9.7-0.9c3.4-5.6-1.8-8-1.8-8s3.6-3,1.4-6.9
					C81.9,115.1,77,118.4,77,118.4z"/>
				
					<ellipse id="XMLID_1831_" transform="matrix(-0.5944 -0.8041 0.8041 -0.5944 14.401 261.4267)" class="st4" cx="73.1" cy="127.1" rx="4.7" ry="5"/>
			</g>
		</g>
	</g>
</g>
</svg>
