<?xml version="1.0" encoding="utf-8"?>
<!-- Generator: Adobe Illustrator 19.0.0, SVG Export Plug-In . SVG Version: 6.00 Build 0)  -->
<svg version="1.1" id="Layer_1" xmlns="http://www.w3.org/2000/svg" xmlns:xlink="http://www.w3.org/1999/xlink" x="0px" y="0px"
	 viewBox="0 0 148.8 217.8" style="enable-background:new 0 0 148.8 217.8;" xml:space="preserve">
<style type="text/css">
	.st0{fill:#A38B33;}
	.st1{fill:#FFFFFF;}
	.st2{fill:#C6C98A;}
	.st3{fill:#6F6358;}
	.st4{fill:#A86B3E;}
	.st5{fill:#BD7844;}
	.st6{fill:#7D5332;}
	.st7{fill:#6D4624;}
	.st8{fill:#DD7351;}
	.st9{fill:#CBCFB3;}
	.st10{fill:#283C4B;}
	.st11{fill:#7D542D;}
	.st12{fill:#C26C58;}
	.st13{fill:#98907B;}
	.st14{fill:#B5BC79;}
</style>
<g id="XMLID_1900_">
	<g id="XMLID_2377_">
		<rect id="XMLID_2380_" x="0" class="st0" width="148.8" height="217.8"/>
		<rect id="XMLID_2379_" x="6.5" y="9.5" class="st1" width="135.8" height="198.8"/>
		<path id="XMLID_2378_" class="st2" d="M24.9,70c0,0,1.5-32.8,5.2-37.5s5.6,1.6,12.7,4.7s17.9-23.4,29.9-10.9s12,10.9,18.7,12.5
			c6.7,1.6,38.9,14.1,38.9,34.4S91,209,72.3,193.4S10.7,180.9,20,140.3S8.8,116.9,24.9,70z"/>
	</g>
	<g id="XMLID_1901_">
		<polygon id="XMLID_2376_" class="st3" points="111.8,158.3 118.1,158.3 118.1,161.7 123.1,161.7 123.1,164.3 127.8,164.3 
			127.8,166.7 110.8,167.4 		"/>
		<polygon id="XMLID_2375_" class="st4" points="125.2,140.8 127.8,138.7 113.4,134.2 113.4,137.1 		"/>
		<polygon id="XMLID_2374_" class="st5" points="36.4,140.8 13.8,145.7 16.4,159.3 37.5,159.3 		"/>
		<polygon id="XMLID_2373_" class="st6" points="19,148.6 34.2,145.7 34.2,160.4 21.1,158.5 		"/>
		
			<rect id="XMLID_2372_" x="19" y="153.1" transform="matrix(0.997 -7.787272e-002 7.787272e-002 0.997 -11.9479 2.6002)" class="st7" width="16.7" height="2.9"/>
		<path id="XMLID_2371_" class="st4" d="M36.1,136.3L10.5,142c-0.9,0.2-1,1.4-0.3,1.8l3.5,1.9l22.6-5L36.1,136.3z"/>
		<path id="XMLID_2370_" class="st8" d="M35.7,129.8c0,0,0.2,10.2,0.4,13.6c0.2,4.5,1.4,17.8,1.4,17.8l73.2,6.3
			c0,0,3.9-18.8,2.9-27.5c-0.3-2.3,8.9,2.2,8.9,2.2l2.6-1.4l-11.8-3.7v-7.3H35.7z"/>
		<g id="XMLID_2357_">
			<polygon id="XMLID_2369_" class="st9" points="55.8,153.3 41.7,152.7 41.4,136.8 55.8,136.8 			"/>
			<path id="XMLID_2368_" class="st10" d="M53.1,151.9l-9.3-0.9c-0.3,0-0.6-0.3-0.6-0.6v-11.1c0-0.6,0.5-1.1,1.1-1.1h9
				c0.3,0,1.1,0.2,1.1,0.5v11.7C54.5,150.7,53.5,151.9,53.1,151.9z"/>
			<rect id="XMLID_2367_" x="42.3" y="143.4" class="st9" width="13" height="1.7"/>
			<rect id="XMLID_2366_" x="47.7" y="137" class="st9" width="1.7" height="14.4"/>
			<path id="XMLID_2365_" class="st9" d="M106.3,154.5l-13.8-0.4l-0.2-15.4c0-0.3,0.3-0.6,0.6-0.6h13.8L106.3,154.5z"/>
			<path id="XMLID_2364_" class="st10" d="M103.9,152.3h-8.8c-0.5,0-1.4,0.2-1.4-0.3l0.4-11.5c0-0.5-0.1-1.3,0.4-1.3l9.3,0.3
				c0.5,0,1,0.4,1,1v10.9C104.9,151.8,104.4,152.3,103.9,152.3z"/>
			<rect id="XMLID_2363_" x="92.8" y="144.7" class="st9" width="13.7" height="1.7"/>
			<rect id="XMLID_2362_" x="98.6" y="138.3" class="st9" width="1.7" height="14.4"/>
			<rect id="XMLID_2361_" x="65.9" y="137.6" class="st9" width="18.1" height="16.5"/>
			<path id="XMLID_2360_" class="st10" d="M80.7,152.3H67.7v-11.5c0-0.7,0.2-1.3,0.9-1.3l13.7-0.1v12.4
				C82.3,152.7,81.6,152.3,80.7,152.3z"/>
			<rect id="XMLID_2359_" x="65.9" y="144.2" class="st9" width="18.1" height="1.7"/>
			<rect id="XMLID_2358_" x="73.9" y="138.7" class="st9" width="2.1" height="14.4"/>
		</g>
		<path id="XMLID_2356_" class="st4" d="M38.4,98.1c0,0-8.9,23-9.2,23.8c-0.3,0.8-6.3,10.5,2.1,10.5c2.5,0,10.2,0.7,21.5,0.7
			c11,0,26.7-1.3,38.6-1.3c17.3,0,30.4,0.7,30.4,0.7s4.4,0,1.3-9.9c-3.1-9.9-11.2-27.7-11.2-27.7S109.5,90,96,90.2s-49,0-49,0
			S40.7,92,38.4,98.1z"/>
		<g id="XMLID_2350_">
			<polygon id="XMLID_2355_" class="st8" points="47,107.8 56.4,98.1 63.5,107.8 63.5,117.5 47,117.5 			"/>
			<rect id="XMLID_2354_" x="50.1" y="106.6" class="st9" width="10.5" height="8.2"/>
			<rect id="XMLID_2353_" x="51.7" y="107.8" class="st10" width="7.3" height="5.8"/>
			<polygon id="XMLID_2352_" class="st11" points="47,107.8 45.4,106.6 56.9,94.7 68,102.5 63.5,117.5 63.5,107.8 56.4,98.1 			"/>
			<polygon id="XMLID_2351_" class="st12" points="63.5,107.8 63.5,117.5 68.1,106.1 68,102.5 			"/>
		</g>
		<g id="XMLID_2344_">
			<polygon id="XMLID_2349_" class="st8" points="87.8,107.8 97.2,98.1 104.3,107.8 104.3,117.5 87.8,117.5 			"/>
			<rect id="XMLID_2348_" x="90.9" y="106.6" class="st9" width="10.5" height="8.2"/>
			<rect id="XMLID_2347_" x="92.5" y="107.8" class="st10" width="7.3" height="5.8"/>
			<polygon id="XMLID_2346_" class="st11" points="87.8,107.8 86.2,106.6 97.7,94.7 108.8,102.5 104.3,117.5 104.3,107.8 97.2,98.1 
							"/>
			<polygon id="XMLID_2345_" class="st12" points="104.3,107.8 104.3,117.5 108.9,106.1 108.8,102.5 			"/>
		</g>
		<polygon id="XMLID_2343_" class="st13" points="56.9,93.8 47,94.7 47,84.6 56.9,85.6 		"/>
		<path id="XMLID_2342_" class="st14" d="M10.1,163.2c0,0,14.8-7.5,17.8-7.6s11,2.5,11,2.5s7.9,1.6,10.3,1.6c2.4,0,6.4-0.2,9.5,0.4
			s4.4-4.2,6.9-1.2c2.5,3,30.2,5.5,35.2,6.6c5,1,13,0.6,15.1,0.6c2,0,9.8-0.8,14,0.3c4.2,1.1,8.2-1.3,8.2-1.3s-1.3,3-7.7,4
			c-6.4,1-22.6,2.2-26.4,1.6c-3.8-0.6-18.7-1.1-22.4-1.1c-3.7,0-14.9,2-16.9,2.4c-2.4,0.5-6.7,2.7-7.5,0.7s-1.3-2.6-3.7-3
			c-2.2-0.4-3.9,2.3-5.9,0.8c-3.4-2.6-9.7-5.7-21.5-5.6S10.1,163.2,10.1,163.2z"/>
		<g id="XMLID_2334_">
			<path id="XMLID_697_" class="st8" d="M34.5,133c-1.1,7.7-1.1,15,0.3,22.6c0.2,1.3,2.2,0.7,1.9-0.5c-1.4-7.3-1.4-14.2-0.3-21.5
				C36.6,132.2,34.7,131.7,34.5,133L34.5,133z"/>
		</g>
		<g id="XMLID_2326_">
			<path id="XMLID_696_" class="st8" d="M124.6,141.1c-0.8,0.3-1.4,0.9-1.9,1.5c-0.4,0.5,0.5,1,0.9,0.5c0.4-0.5,0.9-0.9,1.6-1.2
				C125.7,141.7,125.2,140.8,124.6,141.1L124.6,141.1z"/>
		</g>
		<g id="XMLID_2318_">
			<path id="XMLID_695_" class="st8" d="M86.5,108.4c-0.2,2.9,0.1,5.7,0.3,8.6c0.1,0.6,1.1,0.6,1,0c-0.3-2.9-0.5-5.7-0.3-8.6
				C87.5,107.8,86.5,107.8,86.5,108.4L86.5,108.4z"/>
		</g>
		<g id="XMLID_2310_">
			<path id="XMLID_694_" class="st8" d="M46,107.9c-0.2,2.2,0,4.3,0.4,6.5c0.1,0.6,1.1,0.4,1-0.3c-0.4-2.1-0.5-4.1-0.3-6.2
				C47,107.2,46,107.2,46,107.9L46,107.9z"/>
		</g>
		<g id="XMLID_2301_">
			<path id="XMLID_691_" class="st13" d="M53.9,108.2c-0.2,1.1-0.8,2-1.7,2.6c-0.5,0.4,0,1.2,0.5,0.9c1.1-0.8,1.9-1.9,2.1-3.2
				C55,107.8,54,107.5,53.9,108.2L53.9,108.2z"/>
		</g>
		<g id="XMLID_2293_">
			<path id="XMLID_690_" class="st13" d="M55.2,108.6c0.3,1.4,1.2,2.5,2.3,3.2c0.5,0.3,1-0.5,0.5-0.9c-1-0.6-1.6-1.5-1.9-2.6
				C56,107.7,55,107.9,55.2,108.6L55.2,108.6z"/>
		</g>
		<g id="XMLID_2285_">
			<path id="XMLID_688_" class="st13" d="M94.9,108.3c-0.6,0.8-1.3,1.6-2,2.3c-0.5,0.4,0.2,1.1,0.7,0.7c0.8-0.7,1.6-1.6,2.2-2.5
				C96.1,108.3,95.3,107.8,94.9,108.3L94.9,108.3z"/>
		</g>
		<g id="XMLID_2277_">
			<path id="XMLID_686_" class="st13" d="M95.8,108.8c0.9,0.9,2,1.6,3.2,2c0.6,0.2,0.9-0.7,0.3-1c-1.1-0.4-2-1-2.8-1.8
				C96.1,107.7,95.4,108.4,95.8,108.8L95.8,108.8z"/>
		</g>
		<g id="XMLID_2269_">
			<path id="XMLID_685_" class="st13" d="M21.5,155c0,0,0,0.1,0,0.1c0,0.6,1,0.6,1,0c0,0,0-0.1,0-0.1
				C22.5,154.3,21.5,154.3,21.5,155L21.5,155z"/>
		</g>
		<g id="XMLID_2261_">
			<path id="XMLID_684_" class="st13" d="M27.5,155.2c0.6,0,0.6-1,0-1C26.9,154.2,26.9,155.2,27.5,155.2L27.5,155.2z"/>
		</g>
		<g id="XMLID_2252_">
			<path id="XMLID_683_" class="st13" d="M32.2,154.5c0.6,0,0.6-1,0-1C31.5,153.5,31.5,154.5,32.2,154.5L32.2,154.5z"/>
		</g>
		<g id="XMLID_2244_">
			<path id="XMLID_682_" class="st9" d="M65,138.1c0,4.8,0.2,9.5,0.6,14.3c0.1,0.6,1.1,0.6,1,0c-0.4-4.7-0.6-9.5-0.6-14.3
				C66,137.4,65,137.4,65,138.1L65,138.1z"/>
		</g>
		<g id="XMLID_2236_">
			<path id="XMLID_681_" class="st9" d="M83.3,137.9c0.1,4.9,0.5,9.9-0.6,14.6c-0.1,0.6,0.8,0.9,1,0.3c1.1-4.9,0.7-9.9,0.6-14.9
				C84.2,137.3,83.2,137.3,83.3,137.9L83.3,137.9z"/>
		</g>
		<g id="XMLID_2228_">
			<path id="XMLID_680_" class="st9" d="M40.4,136.9c0,1.9,0.2,3.8,0.7,5.6c0.2,0.6,1.1,0.4,1-0.3c-0.5-1.8-0.7-3.5-0.7-5.4
				C41.4,136.3,40.4,136.3,40.4,136.9L40.4,136.9z"/>
		</g>
		<g id="XMLID_2220_">
			<path id="XMLID_679_" class="st9" d="M55.3,136.2c-3-0.4-6-0.5-9-0.2c-1.8,0.2-4.3,0.1-5.7,1.4c-0.5,0.4,0.2,1.2,0.7,0.7
				c1.5-1.4,5.3-1.2,7.3-1.3c2.2-0.1,4.4,0.1,6.6,0.4C56,137.3,56,136.3,55.3,136.2L55.3,136.2z"/>
		</g>
		<g id="XMLID_2212_">
			<path id="XMLID_678_" class="st5" d="M31,117.2c-1.3,3.5-2.3,7-3,10.7c-0.1,0.6,0.8,0.9,1,0.3c0.7-3.7,1.6-7.2,3-10.7
				C32.2,116.9,31.2,116.6,31,117.2L31,117.2z"/>
		</g>
		<g id="XMLID_2203_">
			<path id="XMLID_677_" class="st5" d="M31.3,121.6c-0.7,1.5-1.2,3-1.4,4.6c-0.1,0.6,0.9,0.6,1,0c0.2-1.4,0.6-2.8,1.2-4.1
				C32.5,121.5,31.6,121,31.3,121.6L31.3,121.6z"/>
		</g>
		<g id="XMLID_2195_">
			<path id="XMLID_676_" class="st5" d="M32.5,122.8c-0.1,1-0.4,1.9-0.7,2.8c-0.2,0.6,0.8,0.9,1,0.3c0.4-1,0.6-2,0.7-3.1
				C33.6,122.2,32.6,122.2,32.5,122.8L32.5,122.8z"/>
		</g>
		<g id="XMLID_2187_">
			<path id="XMLID_675_" class="st5" d="M33.4,123.7c-0.1,0.6-0.3,1.2-0.4,1.8c-0.2,0.6,0.8,0.9,1,0.3c0.1-0.6,0.3-1.2,0.4-1.8
				C34.5,123.3,33.6,123.1,33.4,123.7L33.4,123.7z"/>
		</g>
		<g id="XMLID_2179_">
			<path id="XMLID_674_" class="st5" d="M34.1,123.7c-0.2,0.6-0.3,1.2-0.5,1.8c-0.2,0.6,0.8,0.9,1,0.3c0.2-0.6,0.3-1.2,0.5-1.8
				C35.3,123.3,34.3,123.1,34.1,123.7L34.1,123.7z"/>
		</g>
		<g id="XMLID_2171_">
			<path id="XMLID_673_" class="st5" d="M35.1,123.7c-0.1,0.7-0.3,1.3-0.4,2c-0.1,0.6,0.8,0.9,1,0.3c0.1-0.7,0.3-1.3,0.4-2
				C36.2,123.3,35.3,123.1,35.1,123.7L35.1,123.7z"/>
		</g>
		<g id="XMLID_2163_">
			<path id="XMLID_672_" class="st5" d="M39.2,119.9c-0.4,3.2-0.7,6.4-0.9,9.6c0,0.6,1,0.6,1,0c0.1-3.1,0.4-6.2,0.8-9.3
				C40.2,119.5,39.3,119.2,39.2,119.9L39.2,119.9z"/>
		</g>
		<g id="XMLID_2154_">
			<path id="XMLID_671_" class="st5" d="M42.3,119.7c-0.5,3.4-1,6.9-1.4,10.3c-0.1,0.6,0.9,0.9,1,0.3c0.5-3.4,1-6.9,1.4-10.3
				C43.4,119.4,42.4,119.1,42.3,119.7L42.3,119.7z"/>
		</g>
		<g id="XMLID_2146_">
			<path id="XMLID_670_" class="st5" d="M43.7,124.7c0,0.9-0.1,1.8-0.3,2.7c-0.1,0.6,0.8,0.9,1,0.3c0.2-1,0.3-2,0.3-2.9
				C44.7,124,43.7,124,43.7,124.7L43.7,124.7z"/>
		</g>
		<g id="XMLID_2138_">
			<path id="XMLID_669_" class="st5" d="M45.2,125c-0.3,0.4-0.4,0.9-0.4,1.4c0,0.6,1.1,0.6,1,0c0-0.3,0-0.6,0.2-0.9
				C46.4,124.9,45.5,124.4,45.2,125L45.2,125z"/>
		</g>
		<g id="XMLID_2130_">
			<path id="XMLID_668_" class="st5" d="M46.5,125.2c0,0.2,0,0.5,0,0.7c0,0.6,1,0.6,1,0c0-0.2,0-0.5,0-0.7
				C47.5,124.6,46.5,124.6,46.5,125.2L46.5,125.2z"/>
		</g>
		<g id="XMLID_2122_">
			<path id="XMLID_667_" class="st5" d="M69.8,121.4c0,0.6,0,1.2,0,1.8c0,0.6,1,0.6,1,0c0-0.6,0-1.2,0-1.8
				C70.8,120.8,69.8,120.8,69.8,121.4L69.8,121.4z"/>
		</g>
		<g id="XMLID_2114_">
			<path id="XMLID_666_" class="st5" d="M71.2,119.3c-0.2,1.8-0.3,3.6-0.3,5.4c0,0.6,1,0.6,1,0c0-1.8,0.1-3.6,0.3-5.4
				C72.3,118.7,71.3,118.7,71.2,119.3L71.2,119.3z"/>
		</g>
		<g id="XMLID_2105_">
			<path id="XMLID_665_" class="st5" d="M73,117.2c0.1,2.6,0.2,5.2,0.1,7.8c0,0.6,1,0.6,1,0c0.1-2.6,0-5.2-0.1-7.8
				C74,116.5,73,116.5,73,117.2L73,117.2z"/>
		</g>
		<g id="XMLID_2097_">
			<path id="XMLID_664_" class="st5" d="M75,115.9c0,2.8-0.1,5.6-0.1,8.5c0,0.6,1,0.6,1,0c0-2.8,0.1-5.6,0.1-8.5
				C76,115.3,75,115.3,75,115.9L75,115.9z"/>
		</g>
		<g id="XMLID_2089_">
			<path id="XMLID_663_" class="st5" d="M75.8,121.4c0,0.3,0,0.7,0,1c0,0.6,1,0.6,1,0c0-0.3,0-0.7,0-1
				C76.8,120.8,75.8,120.8,75.8,121.4L75.8,121.4z"/>
		</g>
		<g id="XMLID_2081_">
			<path id="XMLID_662_" class="st5" d="M76.4,120.8c0,0.5,0.1,0.9,0.1,1.4c0.1,0.6,1.1,0.6,1,0c0-0.5-0.1-0.9-0.1-1.4
				C77.3,120.2,76.3,120.2,76.4,120.8L76.4,120.8z"/>
		</g>
		<g id="XMLID_2073_">
			<path id="XMLID_661_" class="st5" d="M77.2,121.7c0,0.4,0,0.8,0,1.3c0,0.6,1,0.6,1,0c0-0.4,0-0.8,0-1.3
				C78.2,121.1,77.2,121.1,77.2,121.7L77.2,121.7z"/>
		</g>
		<g id="XMLID_2065_">
			<path id="XMLID_660_" class="st5" d="M78.2,121.7c0,0.4,0,0.8,0.2,1.1c0.2,0.6,1.2,0.3,1-0.3c-0.1-0.3-0.2-0.5-0.1-0.9
				C79.3,121.1,78.3,121.1,78.2,121.7L78.2,121.7z"/>
		</g>
		<g id="XMLID_2056_">
			<path id="XMLID_659_" class="st5" d="M83.7,121.8c0,0.5,0,0.9,0,1.4c0,0.6,1,0.6,1,0c0-0.5,0-0.9,0-1.4
				C84.7,121.2,83.7,121.2,83.7,121.8L83.7,121.8z"/>
		</g>
		<g id="XMLID_2048_">
			<path id="XMLID_658_" class="st5" d="M85.1,121.4c0,0.4,0,0.8,0,1.1c0,0.6,1,0.6,1,0c0-0.4,0-0.8,0-1.1
				C86.1,120.8,85.1,120.8,85.1,121.4L85.1,121.4z"/>
		</g>
		<g id="XMLID_2040_">
			<path id="XMLID_657_" class="st5" d="M86,121.3c0,0.6,0,1.1,0,1.7c0,0.6,1,0.6,1,0c0-0.6,0-1.1,0-1.7C87,120.6,86,120.6,86,121.3
				L86,121.3z"/>
		</g>
		<g id="XMLID_2032_">
			<path id="XMLID_656_" class="st5" d="M87.6,120.4c0.3,1,0.3,2.1,0.2,3.1c-0.1,0.6,0.9,0.6,1,0c0.1-1.1,0-2.3-0.3-3.4
				C88.4,119.5,87.4,119.8,87.6,120.4L87.6,120.4z"/>
		</g>
		<g id="XMLID_2024_">
			<path id="XMLID_655_" class="st5" d="M88.8,120.1c0.3,1.8,0.4,3.6,0.4,5.4c0,0.6,1,0.6,1,0c0-1.9-0.1-3.8-0.4-5.6
				C89.7,119.2,88.7,119.5,88.8,120.1L88.8,120.1z"/>
		</g>
		<g id="XMLID_2016_">
			<path id="XMLID_654_" class="st5" d="M90.4,120.1c0.3,2.1,0.5,4.2,0.4,6.4c0,0.6,1,0.6,1,0c0.1-2.2-0.1-4.4-0.4-6.6
				C91.2,119.2,90.3,119.5,90.4,120.1L90.4,120.1z"/>
		</g>
		<g id="XMLID_2008_">
			<path id="XMLID_653_" class="st5" d="M92,120.7c0.3,0.9,0.6,1.8,0.8,2.7c0.1,0.6,1.1,0.4,1-0.3c-0.2-0.9-0.4-1.8-0.8-2.7
				C92.7,119.8,91.7,120.1,92,120.7L92,120.7z"/>
		</g>
		<g id="XMLID_2000_">
			<path id="XMLID_652_" class="st5" d="M101.7,123.1c0.3,0.6,0.4,1.2,0.4,1.8c0,0.6,1,0.6,1,0c0-0.7-0.1-1.4-0.4-2.1
				C102.4,122.2,101.4,122.5,101.7,123.1L101.7,123.1z"/>
		</g>
		<g id="XMLID_1993_">
			<path id="XMLID_651_" class="st5" d="M103.1,122.9c0.2,0.5,0.3,1,0.5,1.4c0.2,0.6,1.2,0.3,1-0.3c-0.2-0.5-0.3-1-0.5-1.4
				C103.8,122.1,102.9,122.3,103.1,122.9L103.1,122.9z"/>
		</g>
		<g id="XMLID_1986_">
			<path id="XMLID_650_" class="st5" d="M104.3,123c-0.1,0.4,0,0.7,0.2,1.1c0.3,0.6,1.2,0.1,0.9-0.5c-0.1-0.1-0.1-0.2-0.1-0.3
				C105.4,122.6,104.4,122.3,104.3,123L104.3,123z"/>
		</g>
		<g id="XMLID_1961_">
			<path id="XMLID_649_" class="st5" d="M106.3,122.7c0.1,0.5,0.1,1.1,0.2,1.6c0.3,0,0.7,0,1,0c-0.2-1.2,0-2.4,0.3-3.6
				c-0.3,0-0.6,0.1-0.9,0.1c0.7,1.2,1.1,2.4,1.4,3.7c0.1,0.6,1.1,0.4,1-0.3c-0.3-1.4-0.8-2.7-1.5-3.9c-0.2-0.4-0.8-0.3-0.9,0.1
				c-0.4,1.3-0.5,2.6-0.4,3.9c0.1,0.6,1.1,0.6,1,0c-0.1-0.5-0.1-1.1-0.2-1.6C107.2,122,106.2,122,106.3,122.7L106.3,122.7z"/>
		</g>
		<g id="XMLID_1952_">
			<path id="XMLID_648_" class="st5" d="M108.8,120c0.8,3.3,1.6,6.6,2.4,9.9c0.2,0.6,1.1,0.4,1-0.3c-0.8-3.3-1.6-6.6-2.4-9.9
				C109.7,119.1,108.7,119.4,108.8,120L108.8,120z"/>
		</g>
		<g id="XMLID_1945_">
			<path id="XMLID_647_" class="st5" d="M111.4,122.2c0.6,2.1,1,4.2,1.4,6.4c0.1,0.6,1.1,0.4,1-0.3c-0.4-2.1-0.9-4.3-1.4-6.4
				C112.2,121.3,111.3,121.6,111.4,122.2L111.4,122.2z"/>
		</g>
		<g id="XMLID_1937_">
			<path id="XMLID_646_" class="st5" d="M112.9,123c0.4,1.8,0.8,3.6,1.4,5.4c0.2,0.6,1.2,0.4,1-0.3c-0.6-1.8-1-3.6-1.4-5.4
				C113.8,122.1,112.8,122.3,112.9,123L112.9,123z"/>
		</g>
		<g id="XMLID_1930_">
			<path id="XMLID_645_" class="st5" d="M114.3,122.1c0.2,1.6,0.5,3.2,1.1,4.8c0.2,0.6,1.2,0.3,1-0.3c-0.5-1.5-0.9-3-1-4.5
				C115.2,121.5,114.2,121.5,114.3,122.1L114.3,122.1z"/>
		</g>
		<g id="XMLID_1923_">
			<path id="XMLID_644_" class="st5" d="M115.7,123.4c0.1,0.8,0.2,1.5,0.3,2.3c0.1,0.6,1.1,0.6,1,0c-0.1-0.8-0.2-1.5-0.3-2.3
				C116.7,122.8,115.7,122.7,115.7,123.4L115.7,123.4z"/>
		</g>
		<g id="XMLID_1916_">
			<path id="XMLID_643_" class="st5" d="M116.9,123c0.1,0.6,0.2,1.2,0.3,1.8c0.1,0.6,1.1,0.4,1-0.3c-0.1-0.6-0.2-1.2-0.3-1.8
				C117.7,122.1,116.8,122.3,116.9,123L116.9,123z"/>
		</g>
		<g id="XMLID_1909_">
			<path id="XMLID_642_" class="st5" d="M118.7,123.2c0,0.4,0,0.8,0.2,1.1c0.2,0.6,1.2,0.3,1-0.3c-0.1-0.3-0.2-0.5-0.1-0.9
				C119.8,122.6,118.8,122.6,118.7,123.2L118.7,123.2z"/>
		</g>
		<g id="XMLID_1902_">
			<path id="XMLID_641_" class="st5" d="M119.3,126.6c0.6,0,0.6-1,0-1C118.7,125.6,118.7,126.6,119.3,126.6L119.3,126.6z"/>
		</g>
	</g>
</g>
</svg>
