<?xml version="1.0" encoding="utf-8"?>
<!-- Generator: Adobe Illustrator 19.0.0, SVG Export Plug-In . SVG Version: 6.00 Build 0)  -->
<svg version="1.1" id="Layer_1" xmlns="http://www.w3.org/2000/svg" xmlns:xlink="http://www.w3.org/1999/xlink" x="0px" y="0px"
	 viewBox="0 0 148.8 217.8" style="enable-background:new 0 0 148.8 217.8;" xml:space="preserve">
<style type="text/css">
	.st0{fill:#A38B33;}
	.st1{fill:#FFFFFF;}
	.st2{fill:#C6C98A;}
	.st3{fill:#9C595E;}
	.st4{fill:#DD9D46;}
	.st5{fill:#EAA722;}
	.st6{fill:#B83B3B;}
	.st7{fill:#DE5A3F;}
	.st8{fill:#25897A;}
	.st9{fill:#FBBB5C;}
</style>
<g id="XMLID_2552_">
	<g id="XMLID_2654_">
		<rect id="XMLID_2657_" x="0" class="st0" width="148.8" height="217.8"/>
		<rect id="XMLID_2656_" x="6.5" y="9.5" class="st1" width="135.8" height="198.8"/>
		<path id="XMLID_2655_" class="st2" d="M24.9,70c0,0,1.5-32.8,5.2-37.5s5.6,1.6,12.7,4.7s17.9-23.4,29.9-10.9s12,10.9,18.7,12.5
			c6.7,1.6,38.9,14.1,38.9,34.4S91,209,72.3,193.4S10.7,180.9,20,140.3S8.8,116.9,24.9,70z"/>
	</g>
	<g id="XMLID_2553_">
		<g id="XMLID_2626_">
			<rect id="XMLID_2653_" x="32.8" y="98.9" class="st3" width="83.1" height="10"/>
			<g id="XMLID_2644_">
				<g id="XMLID_2651_">
					<path id="XMLID_2652_" class="st3" d="M70.6,107.7c-10.7,4.5-17.8,13.7-23.2,23.6c-0.8,1.5,1.5,2.8,2.3,1.3
						c5.2-9.5,12-18.3,22.3-22.7C73.5,109.3,72.2,107,70.6,107.7L70.6,107.7z"/>
				</g>
				<g id="XMLID_2649_">
					<path id="XMLID_2650_" class="st3" d="M39.3,110.1c-0.4,8.8,4.2,17,12,21.2c1.5,0.8,2.9-1.5,1.3-2.3
						c-7-3.7-11.1-10.9-10.7-18.9C42,108.4,39.3,108.4,39.3,110.1L39.3,110.1z"/>
				</g>
				<g id="XMLID_2647_">
					<path id="XMLID_2648_" class="st3" d="M60.5,151.5c0,6,0,12,0,18c0,1.7,2.7,1.7,2.7,0c0-6,0-12,0-18
						C63.1,149.8,60.5,149.8,60.5,151.5L60.5,151.5z"/>
				</g>
				<rect id="XMLID_2646_" x="46.2" y="106.3" class="st3" width="7" height="83"/>
				<rect id="XMLID_2645_" x="46.2" y="146.9" class="st3" width="33.3" height="4.5"/>
			</g>
			<g id="XMLID_2635_">
				<g id="XMLID_2642_">
					<path id="XMLID_2643_" class="st3" d="M75.7,110c10.3,4.4,17.1,13.1,22.3,22.7c0.8,1.5,3.1,0.2,2.3-1.3
						c-5.4-9.9-12.6-19.1-23.2-23.6C75.4,107,74.1,109.3,75.7,110L75.7,110z"/>
				</g>
				<g id="XMLID_2640_">
					<path id="XMLID_2641_" class="st3" d="M105.7,110.1C106,118,102,125.2,95,129c-1.5,0.8-0.2,3.1,1.3,2.3
						c7.8-4.2,12.4-12.3,12-21.2C108.3,108.4,105.6,108.4,105.7,110.1L105.7,110.1z"/>
				</g>
				<g id="XMLID_2638_">
					<path id="XMLID_2639_" class="st3" d="M84.5,151.5c0,6,0,12,0,18c0,1.7,2.7,1.7,2.7,0c0-6,0-12,0-18
						C87.1,149.8,84.5,149.8,84.5,151.5L84.5,151.5z"/>
				</g>
				<rect id="XMLID_2637_" x="94.4" y="106.3" class="st3" width="7" height="83"/>
				<rect id="XMLID_2636_" x="68" y="146.9" class="st3" width="33.3" height="4.5"/>
			</g>
			<g id="XMLID_2633_">
				<path id="XMLID_2634_" class="st3" d="M52.3,181.4c3.8-6.6,11.8-9.2,18.9-10.7c10.1-2,17,5.1,22.6,12.5c1,1.3,3.3,0,2.3-1.3
					c-5.6-7.4-12.9-15.3-23.1-14.2c-8.4,0.9-18.6,4.6-23,12.3C49.2,181.5,51.5,182.9,52.3,181.4L52.3,181.4z"/>
			</g>
			<g id="XMLID_2631_">
				<path id="XMLID_2632_" class="st3" d="M71.9,150c0,6.1,0,12.3,0,18.4c0,1.7,2.7,1.7,2.7,0c0-6.1,0-12.3,0-18.4
					C74.6,148.3,71.9,148.3,71.9,150L71.9,150z"/>
			</g>
			<g id="XMLID_2629_">
				<path id="XMLID_2630_" class="st3" d="M74.9,138.9c2.1,4.5,5.2,8.3,10.6,8.3c4.7,0,9.4-2.4,11-6.9c0.6-1.6-2-2.3-2.6-0.7
					c-1.4,4-6.7,5.7-10.5,4.6c-3.3-1-4.8-3.6-6.2-6.6C76.5,136,74.2,137.4,74.9,138.9L74.9,138.9z"/>
			</g>
			<g id="XMLID_2627_">
				<path id="XMLID_2628_" class="st3" d="M50,133.5c1.8,5.9,4.5,12.9,11.4,14c6.5,1,11.6-4,14.9-9c1-1.4-1.4-2.8-2.3-1.3
					c-2.6,3.9-6.2,7.9-11.3,7.8c-6.4-0.2-8.6-7.1-10.1-12.2C52.1,131.1,49.5,131.8,50,133.5L50,133.5z"/>
			</g>
		</g>
		<g id="XMLID_2554_">
			<g id="XMLID_2619_">
				<path id="XMLID_727_" class="st4" d="M98.5,72.3c-14.7-12.3-34.1-5.7-51-3.8c-1.3,0.1-1.3,2.1,0,2C63.6,68.7,82.9,62,97,73.7
					C98,74.6,99.5,73.2,98.5,72.3L98.5,72.3z"/>
			</g>
			<g id="XMLID_2612_">
				<path id="XMLID_726_" class="st4" d="M97.5,75.1c-7.2-3.3-14.2-6.9-22.2-7.5C66.8,67,58.4,69,50.2,71c-1.3,0.3-0.7,2.2,0.5,1.9
					c7.5-1.8,15-3.6,22.8-3.4c8.4,0.2,15.5,3.9,23,7.3C97.7,77.3,98.7,75.6,97.5,75.1L97.5,75.1z"/>
			</g>
			<g id="XMLID_2605_">
				<path id="XMLID_725_" class="st4" d="M93.4,77.6c-11.4-4.9-28.2-9.4-40.3-4.5c-1.2,0.5-0.7,2.4,0.5,1.9
					c11.6-4.7,27.8-0.4,38.7,4.3C93.5,79.9,94.6,78.1,93.4,77.6L93.4,77.6z"/>
			</g>
			<g id="XMLID_2598_">
				<path id="XMLID_724_" class="st4" d="M89.6,80.5c-10-3.8-20-5.3-30.6-4c-1.3,0.2-1.3,2.2,0,2c10.4-1.2,20.3,0.3,30.1,3.9
					C90.3,82.9,90.8,81,89.6,80.5L89.6,80.5z"/>
			</g>
			<g id="XMLID_2591_">
				<path id="XMLID_723_" class="st4" d="M82.6,82.3c-4.8-1.6-9.7-2.4-14.7-2.4c-1.3,0-1.3,2,0,2c4.9,0.1,9.6,0.8,14.2,2.3
					C83.3,84.7,83.8,82.7,82.6,82.3L82.6,82.3z"/>
			</g>
			<g id="XMLID_2584_">
				<path id="XMLID_722_" class="st4" d="M95.3,70c-3.2,0.8-6,2.2-8.5,4.4c-2.8,2.5-4,6-6.5,8.7c-0.9,0.9,0.5,2.4,1.4,1.4
					c2.1-2.3,3.2-5.2,5.3-7.5c2.4-2.6,5.4-4.3,8.8-5.1C97.1,71.6,96.5,69.7,95.3,70L95.3,70z"/>
			</g>
			<g id="XMLID_2577_">
				<path id="XMLID_721_" class="st4" d="M84.3,66.8c-2.2,2.4-4.1,5-5.8,7.9c-0.7,1.2-1.4,2.4-1.9,3.7c-0.7,1.8-0.5,3.9-1.5,5.6
					c-0.7,1.1,1,2.1,1.7,1c0.6-1,0.8-1.8,1.1-3c0.4-2,0.9-3.6,1.8-5.4c1.7-3,3.7-5.8,6-8.4C86.6,67.2,85.2,65.8,84.3,66.8L84.3,66.8
					z"/>
			</g>
			<g id="XMLID_2570_">
				<path id="XMLID_720_" class="st4" d="M75.9,66.2c-6.8,1.9-7,10.7-8.2,16.3c-0.2,1.3,1.7,1.8,1.9,0.5c0.9-4.7,1.1-13.4,6.8-15
					C77.6,67.8,77.1,65.9,75.9,66.2L75.9,66.2z"/>
			</g>
			<g id="XMLID_2563_">
				<path id="XMLID_719_" class="st4" d="M51,68.9c-0.7,3.2,2.1,5.2,4.6,6.4c1.2,0.6,2.2-1.2,1-1.7c-1.6-0.8-4.1-1.9-3.7-4.1
					C53.2,68.2,51.2,67.6,51,68.9L51,68.9z"/>
			</g>
			<path id="XMLID_2562_" class="st5" d="M74.2,68.6c0,0-1.6,1.4-0.7,3.1s5.3,0,2.1,11.5s-12.3,7.8-14,8.3
				c-4.6,1.5-15.9-16.1-7.7-22.4c0,0,2.8-1.1,4.4-0.4c1.6,0.6-0.6-6.5-0.6-6.5L74.2,68.6z"/>
			<path id="XMLID_2561_" class="st6" d="M80.8,84.5c0,0,0.9-1,0.2-2c-0.7-1-3.3,0.4-2.2-7c1.1-7.5,7.1-5.9,8.1-6.3
				c2.8-1.3,11.2,8.8,6.6,13.4c0,0-1.6,0.9-2.7,0.6c-1.1-0.3,0.9,4,0.9,4L80.8,84.5z"/>
			<path id="XMLID_2560_" class="st7" d="M77.8,90.4c0,0,1-1.1,0.2-2.2c-0.8-1.1-3.7,0.5-2.5-7.8s7.9-6.5,9-7
				c3.1-1.4,12.4,9.8,7.3,14.9c0,0-1.8,1-3,0.7c-1.2-0.3,1,4.4,1,4.4L77.8,90.4z"/>
			<path id="XMLID_2559_" class="st8" d="M74.9,65.5c0,0,0.5-3.4-5.3-5.2S58.3,57,57.7,59.6c-0.6,2.6,0.8,4.2,0.8,4.2l-7.1,2.4
				c0,0,7.4-0.6,11.1,2.6c3.7,3.1,2.9,4.2,6.1,2.6c3.1-1.5,6.7-4.9,10.1-1.1l-3.4-3.7L74.9,65.5z"/>
			<g id="XMLID_2555_">
				<g id="XMLID_2556_">
					<path id="XMLID_2558_" class="st9" d="M44.8,70.4c0,0,1.7-12.7,4-14.9s5.7-3.6,8.8-6.1c3.2-2.6,11.5-4.9,16.5-5.6
						c5-0.7,13.7,0.2,15.9,3.3c2.2,3.1,9.7,5,10.5,9.4s1.1,14.5,0.2,17c-0.9,2.5-5.1,0.1-4.4-2.5s4.4-7.3,0.5-10.8s-8.5-3.7-9.4-7.5
						c-0.9-3.8-5.4-4-9-3.1c-3.6,1-10.8-0.5-14.5,1.5c-3.7,1.9-2.2,1.3-7.6,6.1s-8.1,6.1-7.3,11.2S44.4,73.1,44.8,70.4z"/>
					<path id="XMLID_2557_" class="st9" d="M42,67.9c-4.4,2-4.7,9.6-3.5,14.6c1.2,5.1-0.1,13.3,6.6,14.8c6.8,1.5,20.5,5.4,26.5,6.6
						c6,1.2,12.1-0.2,17.5-5.6c5.4-5.5,14.3-5.4,14.8-12.8c0.5-7.4,1.8-14-3-14.3c-4.8-0.3-4.5,2-8.4,5.2c-3.9,3.2-4.1,7-10.2,7.4
						c-6,0.4-14.5,0.5-18.2-2.9s-5.9-6.6-11-7.1C48.1,73.2,48.4,65,42,67.9z"/>
				</g>
			</g>
		</g>
	</g>
</g>
</svg>
