<?xml version="1.0" encoding="utf-8"?>
<!-- Generator: Adobe Illustrator 19.0.0, SVG Export Plug-In . SVG Version: 6.00 Build 0)  -->
<svg version="1.1" id="Layer_1" xmlns="http://www.w3.org/2000/svg" xmlns:xlink="http://www.w3.org/1999/xlink" x="0px" y="0px"
	 viewBox="0 0 148.8 217.8" style="enable-background:new 0 0 148.8 217.8;" xml:space="preserve">
<style type="text/css">
	.st0{fill:#A38B33;}
	.st1{fill:#FFFFFF;}
	.st2{fill:#C6C98A;}
	.st3{fill:#788F6F;}
	.st4{fill:#A17152;}
	.st5{fill:#6D2526;}
	.st6{fill:#401A15;}
</style>
<g id="XMLID_2421_">
	<g id="XMLID_2548_">
		<rect id="XMLID_2551_" x="0" class="st0" width="148.8" height="217.8"/>
		<rect id="XMLID_2550_" x="6.5" y="9.5" class="st1" width="135.8" height="198.8"/>
		<path id="XMLID_2549_" class="st2" d="M24.9,70c0,0,1.5-32.8,5.2-37.5s5.6,1.6,12.7,4.7s17.9-23.4,29.9-10.9s12,10.9,18.7,12.5
			c6.7,1.6,38.9,14.1,38.9,34.4S91,209,72.3,193.4S10.7,180.9,20,140.3S8.8,116.9,24.9,70z"/>
	</g>
	<g id="XMLID_2422_">
		<g id="XMLID_2517_">
			<g id="XMLID_2541_">
				<path id="XMLID_718_" class="st3" d="M113.5,94.2c-4.4,4.2-9.3,7.8-13.5,12.2c-5.2,5.4-8.9,11.5-12.2,18.2
					c-7.6,14.9-14,31.4-25.5,43.8c-0.9,0.9,0.5,2.4,1.4,1.4c10.8-11.7,17.1-26.9,24.2-41c3.8-7.5,7.6-14.9,13.5-21
					c4.2-4.4,9.1-8,13.5-12.2C115.8,94.8,114.4,93.3,113.5,94.2L113.5,94.2z"/>
			</g>
			<g id="XMLID_2534_">
				<path id="XMLID_717_" class="st3" d="M51.2,179.6c-5.5-16.5-11.9-32.7-19-48.6c-0.3-0.6-1.1-0.1-0.9,0.5
					c7.1,15.8,13.4,31.9,18.9,48.3C50.4,180.5,51.4,180.2,51.2,179.6L51.2,179.6z"/>
			</g>
			<path id="XMLID_2533_" class="st3" d="M48,168.4c0,0-0.2-11.8,10.2-12.9C58.2,155.4,56.8,168.8,48,168.4z"/>
			<path id="XMLID_2532_" class="st3" d="M42.7,157.4c0,0-1.4-12.3,10.4-19.7C53.1,137.7,56.4,154.6,42.7,157.4z"/>
			<path id="XMLID_2531_" class="st3" d="M38.5,145.3c0,0,12.3-7.3,7.7-23.1C46.2,122.2,33.5,127.3,38.5,145.3z"/>
			<path id="XMLID_2530_" class="st3" d="M33.3,133.8c0,0,2.5-23.3-7.6-23.2C25.7,110.6,19.7,128.1,33.3,133.8z"/>
			<path id="XMLID_2529_" class="st3" d="M35.8,145.3c0,0-7.2-11.9-18.7-3.4C17.2,141.9,23.3,152.3,35.8,145.3z"/>
			<path id="XMLID_2528_" class="st3" d="M40.6,160c0,0-12.7,5.5-21.1-2.6C19.4,157.4,32.8,147.5,40.6,160z"/>
			<path id="XMLID_2527_" class="st3" d="M44.4,168.4c0,0-6.7-6.3-16.6,0C27.9,168.4,35.5,179.7,44.4,168.4z"/>
			<path id="XMLID_2526_" class="st3" d="M111.3,98.6c0,0,0-14.7,20.4-15.8C131.7,82.8,121.9,98.5,111.3,98.6z"/>
			<path id="XMLID_2525_" class="st3" d="M102.3,107.6c0,0-4-12.1,3.1-16.9C105.3,90.7,111.2,98.2,102.3,107.6z"/>
			<path id="XMLID_2524_" class="st3" d="M91.3,120.1c0,0-7-12.6,3.5-21C94.8,99.1,98.6,109.6,91.3,120.1z"/>
			<path id="XMLID_2523_" class="st3" d="M82.8,133.8c0,0-11.6-4.7-3.5-25.8C79.3,108,89.5,115.1,82.8,133.8z"/>
			<path id="XMLID_2522_" class="st3" d="M85.1,133.8c0,0,14.3,10.2,27.6-6C112.7,127.8,90.9,122.1,85.1,133.8z"/>
			<path id="XMLID_2521_" class="st3" d="M74,147.6c0,0-13.1-7-9-29.9C65,117.6,83.9,132.8,74,147.6z"/>
			<path id="XMLID_2520_" class="st3" d="M74,153.7c0,0,19.7,9.6,33.1-4.1C107.1,149.6,86,139.1,74,153.7z"/>
			<path id="XMLID_2519_" class="st3" d="M93.7,120.1c0,0,15.8,2.3,22.2-6.3C115.9,113.8,97.9,108.5,93.7,120.1z"/>
			<path id="XMLID_2518_" class="st3" d="M107.2,106c0,0,13.3,3.9,18.9-3.9C126.1,102.1,111.5,96.2,107.2,106z"/>
		</g>
		<g id="XMLID_2442_">
			<path id="XMLID_2516_" class="st4" d="M67.3,99.5c0,0,18.3,59.9,4.6,81.5s2.5-28.3-11.2-78.6S67.3,99.5,67.3,99.5z"/>
			<path id="XMLID_2515_" class="st5" d="M81.8,110.9c0,0,10.2-7.4,4.4-16c-5.9-8.6-24.1-49-23.6-50.1c0.5-1.2-7.7-9.4-10.8,13.4
				S42.6,91.9,37.4,95c-5.2,3.1-20.2,23.3-2.7,24.1C52.3,119.8,54.3,100.5,81.8,110.9z"/>
			<path id="XMLID_2514_" class="st4" d="M52.7,149.5c0,0-1.4,31.3,7.9,40.2s-4.8-13.4-4.3-39.5C56.7,124,52.7,149.5,52.7,149.5z"/>
			<path id="XMLID_2513_" class="st5" d="M64.7,155.2c0,0,5.1-3.1,2.1-6.9c-3-3.8-6.9-13.4-12.2-22c-0.3-0.5-3.9-4.1-5.3,5.8
				c-1.4,9.9,0.1,16.4-2.5,17.7c-2.6,1.3-5.6,8.7,3.2,9.1S50.9,150.4,64.7,155.2z"/>
			<g id="XMLID_2506_">
				<path id="XMLID_716_" class="st6" d="M51,104.7c2.9-0.5,3.5-5.1,0.9-6.3c-1.2-0.6-2.2,1.2-1,1.7c1.1,0.5,0.8,2.5-0.4,2.7
					C49.2,103,49.7,104.9,51,104.7L51,104.7z"/>
			</g>
			<g id="XMLID_2499_">
				<path id="XMLID_715_" class="st6" d="M62.2,78.7c1.5-1.9,3.8-5.7,0.9-7.6c-1.7-1.1-4.5-0.7-4.6,1.7c-0.1,1.3,1.9,1.3,2,0
					c0-0.6,1.4-0.2,1.7,0.1c1.1,1.2-0.7,3.5-1.4,4.3C60,78.3,61.4,79.7,62.2,78.7L62.2,78.7z"/>
			</g>
			<g id="XMLID_2492_">
				<path id="XMLID_714_" class="st6" d="M71.1,93.5c2.1-0.1,3.3-2.9,1.7-4.4c-0.9-0.9-2.3,0.5-1.4,1.4c0.2,0.2,0,0,0.1,0.1
					c-0.1-0.1,0,0.2,0,0c0,0.2,0,0.2-0.1,0.5c0,0.1-0.1,0.2-0.2,0.3c-0.1,0.1,0,0-0.2,0.1c0.1,0-0.2,0,0,0
					C69.9,91.6,69.9,93.6,71.1,93.5L71.1,93.5z"/>
			</g>
			<g id="XMLID_2485_">
				<path id="XMLID_713_" class="st6" d="M61.9,95c0.1-0.5,0.1-0.9,0.2-1.4c0.1-0.5-0.5-1-1-1c-0.6,0-0.9,0.5-1,1
					C60,94,60,94.5,59.9,95c-0.1,0.5,0.5,1,1,1C61.5,96,61.9,95.5,61.9,95L61.9,95z"/>
			</g>
			<g id="XMLID_2478_">
				<path id="XMLID_712_" class="st6" d="M53.4,80.5c1.4,0.1,2.3-1.5,1.6-2.7c-0.7-1.1-2.5-1-3,0.2c-0.2,0.5-0.1,1.1,0.4,1.4
					c0.4,0.3,1.1,0.1,1.4-0.4c0.1-0.2-0.1,0-0.2,0.1c0.1,0,0.1,0.1,0,0c-0.1-0.1-0.3-0.3-0.2-0.5c0.1-0.1,0.4,0,0.1-0.1
					c-0.5-0.1-1,0.5-1,1C52.4,80,52.9,80.4,53.4,80.5L53.4,80.5z"/>
			</g>
			<g id="XMLID_2471_">
				<path id="XMLID_711_" class="st6" d="M53.5,151.6c0.1-0.7,0.2-1.4,0.2-2.1c0.1-0.5-0.5-1-1-1c-0.6,0-0.9,0.5-1,1
					c-0.1,0.7-0.2,1.4-0.2,2.1c-0.1,0.5,0.5,1,1,1C53.1,152.6,53.4,152.1,53.5,151.6L53.5,151.6z"/>
			</g>
			<g id="XMLID_2464_">
				<path id="XMLID_710_" class="st6" d="M54,139.3c1.3,0,1.3-2,0-2C52.7,137.3,52.7,139.3,54,139.3L54,139.3z"/>
			</g>
			<g id="XMLID_2457_">
				<path id="XMLID_709_" class="st6" d="M59.4,148.3c1.9-0.1,3.4-2,2.8-3.9c-0.4-1.2-2.3-0.7-1.9,0.5c0.2,0.5-0.2,1.3-0.9,1.4
					C58.1,146.4,58.1,148.4,59.4,148.3L59.4,148.3z"/>
			</g>
			<g id="XMLID_2450_">
				<path id="XMLID_708_" class="st6" d="M60.3,54.1c1-1.1,1-2.8-0.1-3.9c-1.1-1-2.9-0.9-3.9,0.1c-0.9,0.9,0.5,2.3,1.4,1.4
					c0.7-0.7,1.7,0.2,1.1,0.9C58,53.7,59.5,55.1,60.3,54.1L60.3,54.1z"/>
			</g>
			<g id="XMLID_2443_">
				<path id="XMLID_707_" class="st6" d="M40.2,111.9c2.7-0.7,3.2-4.7,0.8-6c-1.1-0.6-2.1,1.1-1,1.7c0.9,0.5,0.6,2.1-0.4,2.4
					C38.4,110.3,38.9,112.2,40.2,111.9L40.2,111.9z"/>
			</g>
		</g>
		<g id="XMLID_2423_">
			<g id="XMLID_2435_">
				<path id="XMLID_706_" class="st0" d="M82.2,193.2c2.3-7.8,6-14.8,11.1-21.1c0.8-1-0.6-2.4-1.4-1.4c-5.3,6.6-9.2,13.9-11.6,22
					C79.9,193.9,81.8,194.4,82.2,193.2L82.2,193.2z"/>
			</g>
			<path id="XMLID_2434_" class="st0" d="M80.3,173.4c0,0,6.3-5.1,5.5-13c0-0.3-0.3-0.5-0.5-0.3C83.5,161.6,76.9,167.7,80.3,173.4z"
				/>
			<path id="XMLID_2433_" class="st0" d="M92.9,166.8c0,0,7.7-6.2,6.7-15.8c0-0.4-0.4-0.6-0.6-0.3C96.8,152.4,88.8,159.7,92.9,166.8
				z"/>
			<path id="XMLID_2432_" class="st0" d="M84.6,171c0,0,7,7,16.5,5c0.4-0.1,0.5-0.4,0.3-0.7C99.3,173.3,91.1,166.1,84.6,171z"/>
			<g id="XMLID_2425_">
				<path id="XMLID_705_" class="st0" d="M94.8,164.6c-8.1,2.9-15.5,8.2-20,15.7c-0.3,0.6,0.5,1.1,0.9,0.5
					c4.4-7.2,11.5-12.4,19.4-15.2C95.7,165.3,95.4,164.4,94.8,164.6L94.8,164.6z"/>
			</g>
			<path id="XMLID_2424_" class="st0" d="M114.1,163.3c0,0-6.4-5.7-19.1,1.8C95,165.1,99.1,172.7,114.1,163.3z"/>
		</g>
	</g>
</g>
</svg>
